<svg width="51" height="57" viewBox="0 0 51 57" fill="none" xmlns="http://www.w3.org/2000/svg">
<path opacity="0.6" d="M33.4022 45.8087C33.4022 47.6323 25.9254 49.1216 16.701 49.1216C7.47664 49.1216 -0.00012207 47.6323 -0.00012207 45.8087C-0.00012207 43.9851 7.47664 42.4958 16.701 42.4958C25.9254 42.4958 33.4022 43.9851 33.4022 45.8087Z" fill="#CCCCCC"/>
<path d="M44.6477 34.8063C44.6477 34.8063 41.7299 20.02 30.7427 13.4854H22.9013C11.9141 20.02 8.99631 34.8063 8.99631 34.8063C5.78982 52.009 25.743 49.8055 25.743 49.8055H27.901C27.901 49.8055 47.8542 51.9938 44.6477 34.8063Z" fill="#E8C47B"/>
<path d="M44.6476 34.8063C44.6476 34.8063 41.7299 20.02 30.7427 13.4854H26.3813C33.8428 20.0504 35.94 30.6576 35.94 30.6576C38.8729 46.3558 20.6521 44.365 20.6521 44.365H18.6765C18.6765 44.365 13.92 44.8817 9.66492 43.3013C13.3273 51.1731 25.743 49.8054 25.743 49.8054H27.9009C27.9009 49.8054 47.8541 51.9938 44.6476 34.8063Z" fill="#DAB873"/>
<path d="M14.9382 3.86594C14.5279 3.33405 13.8897 2.17911 14.5887 1.64722C15.5005 0.948178 17.2785 1.69281 18.2055 1.95116C19.4213 2.28548 20.7586 2.58942 22.0807 2.45265C23.3724 2.31588 24.8617 1.60163 26.0166 1.13054C27.1868 0.659441 28.4177 -0.191573 29.8006 0.233934C31.2595 0.689834 31.8369 1.96635 33.5238 2.11832C36.4871 2.40706 38.2347 -0.25236 41.0157 0.02118C42.4594 0.173147 42.2922 1.06975 41.4868 1.69281L30.7428 13.4854H22.9013L14.9382 3.86594Z" fill="#E8C47B"/>
<path opacity="0.6" d="M36.776 54.2733C33.1592 54.2733 30.2415 53.1487 30.2415 51.7658C30.2415 50.3829 33.1744 49.2584 36.776 49.2584C40.3928 49.2584 43.3106 50.3829 43.3106 51.7658C43.3106 53.1487 40.3928 54.2733 36.776 54.2733Z" fill="#CCCCCC"/>
<path opacity="0.6" d="M43.6297 46.6141C40.0129 46.6141 37.0952 45.4896 37.0952 44.1067C37.0952 42.7238 40.0281 41.5992 43.6297 41.5992C47.2465 41.5992 50.1643 42.7238 50.1643 44.1067C50.1795 45.4896 47.2465 46.6141 43.6297 46.6141Z" fill="#CCCCCC"/>
<path opacity="0.6" d="M42.8395 51.5682C39.2379 51.4467 36.2746 52.4648 36.2138 53.8629C36.1682 55.2458 39.0556 56.4768 42.6572 56.5983C46.2588 56.7199 49.2221 55.7017 49.2677 54.3036C49.3285 52.9055 46.4411 51.6898 42.8395 51.5682Z" fill="#CCCCCC"/>
<path opacity="0.6" d="M24.3451 47.4044C27.9468 47.2828 30.9101 48.301 30.9709 49.6991C31.0165 51.082 28.1291 52.3129 24.5275 52.4345C20.9259 52.556 17.9625 51.5379 17.917 50.1398C17.8562 48.7569 20.7435 47.5259 24.3451 47.4044Z" fill="#CCCCCC"/>
<path d="M21.4731 48.149C21.4731 49.5319 24.4061 50.6564 28.0077 50.6564C31.6245 50.6564 34.5423 49.5319 34.5423 48.149V46.9637H21.4731V48.149Z" fill="#FF931E"/>
<path d="M27.3999 47.5715V50.6564C27.5975 50.6564 27.8102 50.6716 28.023 50.6716V47.5867H27.3999V47.5715Z" fill="#D17918"/>
<path d="M26.1385 47.5715V50.5501C26.4728 50.5957 26.8223 50.6109 27.1871 50.6412V47.5715H26.1385Z" fill="#D17918"/>
<path d="M25.8801 50.5197V46.9637H21.4883V48.149C21.4731 49.2432 23.3119 50.1853 25.8801 50.5197Z" fill="#D17918"/>
<path d="M30.348 47.5715V50.5045C30.4239 50.4893 30.4847 50.4893 30.5607 50.4741V47.5867H30.348V47.5715Z" fill="#D17918"/>
<path d="M29.5274 50.5957C29.6034 50.5957 29.6642 50.5805 29.7402 50.5805V47.5715H29.5274V50.5957Z" fill="#D17918"/>
<path d="M28.4941 47.5715V50.6564C28.6005 50.6564 28.7068 50.6564 28.798 50.6412V47.5715H28.4941Z" fill="#D17918"/>
<path d="M28.023 49.4711C24.4062 49.4711 21.4884 48.3466 21.4884 46.9637C21.4884 45.5808 24.4214 44.4562 28.023 44.4562C31.6398 44.4562 34.5575 45.5808 34.5575 46.9637C34.5575 48.3466 31.6246 49.4711 28.023 49.4711Z" fill="#FF931E"/>
<path opacity="0.4" d="M31.7006 49.0456C31.5182 49.0456 31.3206 49.0608 31.1383 49.0608C27.5215 49.0608 24.6037 47.9362 24.6037 46.5533C24.6037 45.6871 25.7283 44.9273 27.4607 44.4714C24.1174 44.5778 21.4884 45.6567 21.4884 46.9789C21.4884 48.3618 24.4214 49.4863 28.023 49.4863C29.3755 49.4711 30.652 49.3191 31.7006 49.0456Z" fill="url(#paint0_linear_1_142)"/>
<path d="M34.5423 47.0396C34.4359 45.6871 31.5485 44.6082 28.0077 44.6082C24.4669 44.6082 21.5795 45.6871 21.4731 47.0396C21.5795 48.3921 24.4669 49.4711 28.0077 49.4711C31.5637 49.4711 34.4359 48.3921 34.5423 47.0396ZM28.0229 49.1672C25.0899 49.1672 22.7041 48.2554 22.7041 47.1156C22.7041 45.9911 25.0899 45.0641 28.0229 45.0641C30.9559 45.0641 33.3417 45.9759 33.3417 47.1156C33.3417 48.2402 30.9559 49.1672 28.0229 49.1672Z" fill="#D17918"/>
<path d="M27.4302 46.6141L24.9075 47.3436V47.8451L27.491 47.0548C27.7493 47.2676 28.114 47.4196 28.5851 47.5259C28.6307 47.5411 28.6611 47.5411 28.7067 47.5563V48.0122H29.6489V47.6475C29.8464 47.6627 30.044 47.6627 30.2112 47.6475V47.9818H31.1534V46.6293H30.2112V47.2828C30.0592 47.2828 29.8616 47.2828 29.6489 47.2828V46.6445H28.7067V47.1004C28.4787 47.0092 28.2964 46.8877 28.1596 46.7205L27.4302 46.6141Z" fill="#D17918"/>
<path d="M33.3418 46.9637C33.3418 48.0882 30.9559 49.0152 28.023 49.0152C25.09 49.0152 22.7041 48.1034 22.7041 46.9637C22.7041 45.8239 25.09 44.9121 28.023 44.9121C30.9559 44.9121 33.3418 45.8391 33.3418 46.9637ZM34.5575 46.9637C34.5575 45.5808 31.6246 44.4562 28.023 44.4562C24.4062 44.4562 21.4884 45.5808 21.4884 46.9637C21.4884 48.3466 24.4214 49.4711 28.023 49.4711C31.6246 49.4711 34.5575 48.3466 34.5575 46.9637Z" fill="#FFC022"/>
<path d="M23.4031 46.9637C23.4031 45.9911 25.4698 45.1857 28.0229 45.1857C30.5759 45.1857 32.6427 45.9759 32.6427 46.9637C32.6427 47.9363 30.5759 48.7417 28.0229 48.7417C25.4698 48.7417 23.4031 47.9363 23.4031 46.9637ZM32.4299 46.9637C32.4299 46.0215 30.4543 45.2616 28.0077 45.2616C25.5762 45.2616 23.5854 46.0215 23.5854 46.9637C23.5854 47.9059 25.561 48.6657 28.0077 48.6657C30.4543 48.6657 32.4299 47.9059 32.4299 46.9637Z" fill="#FFC022"/>
<path d="M27.4302 46.2798L24.9075 47.0093V47.5107L27.491 46.7053C27.7493 46.9181 28.114 47.07 28.5851 47.1764C28.6307 47.1916 28.6611 47.1916 28.7067 47.2068V47.6627H29.6489V47.3132C29.8464 47.3284 30.044 47.3284 30.2112 47.3132V47.6475H31.1534V46.295H30.2112V46.9485C30.0592 46.9485 29.8616 46.9485 29.6489 46.9485V46.3102H28.7067V46.7661C28.4787 46.6749 28.2964 46.5534 28.1596 46.3862L27.4302 46.2798Z" fill="#FFC022"/>
<path d="M21.4731 45.6415C21.4731 47.0244 24.4061 48.149 28.0077 48.149C31.6245 48.149 34.5423 47.0244 34.5423 45.6415V44.4562H21.4731V45.6415Z" fill="#FF931E"/>
<path d="M27.3999 45.0641V48.149C27.5975 48.149 27.8102 48.1642 28.023 48.1642V45.0641H27.3999Z" fill="#D17918"/>
<path d="M26.1385 45.0641V48.0426C26.4728 48.0882 26.8223 48.1034 27.1871 48.1338V45.0641H26.1385Z" fill="#D17918"/>
<path d="M25.8801 48.0122V44.4562H21.4883V45.6415C21.4731 46.7357 23.3119 47.6779 25.8801 48.0122Z" fill="#D17918"/>
<path d="M30.348 45.0641V47.997C30.4239 47.9818 30.4847 47.9818 30.5607 47.9666V45.0793H30.348V45.0641Z" fill="#D17918"/>
<path d="M29.5274 48.0882C29.6034 48.0882 29.6642 48.073 29.7402 48.073V45.0641H29.5274V48.0882Z" fill="#D17918"/>
<path d="M28.4941 45.0641V48.149C28.6005 48.149 28.7068 48.149 28.798 48.1338V45.0641H28.4941Z" fill="#D17918"/>
<path d="M28.023 46.9637C24.4062 46.9637 21.4884 45.8391 21.4884 44.4562C21.4884 43.0733 24.4214 41.9488 28.023 41.9488C31.6398 41.9488 34.5575 43.0733 34.5575 44.4562C34.5575 45.8391 31.6246 46.9637 28.023 46.9637Z" fill="#FF931E"/>
<path opacity="0.4" d="M31.7006 46.523C31.5182 46.523 31.3206 46.5382 31.1383 46.5382C27.5215 46.5382 24.6037 45.4136 24.6037 44.0307C24.6037 43.1645 25.7283 42.4047 27.4607 41.9488C24.1174 42.0551 21.4884 43.1341 21.4884 44.4562C21.4884 45.8391 24.4214 46.9637 28.023 46.9637C29.3755 46.9637 30.652 46.7965 31.7006 46.523Z" fill="url(#paint1_linear_1_142)"/>
<path d="M34.5423 44.5322C34.4359 43.1797 31.5485 42.1007 28.0077 42.1007C24.4669 42.1007 21.5795 43.1797 21.4731 44.5322C21.5795 45.8847 24.4669 46.9637 28.0077 46.9637C31.5637 46.9637 34.4359 45.8847 34.5423 44.5322ZM28.0229 46.6445C25.0899 46.6445 22.7041 45.7327 22.7041 44.593C22.7041 43.4684 25.0899 42.5414 28.0229 42.5414C30.9559 42.5414 33.3417 43.4532 33.3417 44.593C33.3417 45.7327 30.9559 46.6445 28.0229 46.6445Z" fill="#D17918"/>
<path d="M27.4302 44.1067L24.9075 44.8361V45.3376L27.491 44.5474C27.7493 44.7601 28.114 44.9121 28.5851 45.0185C28.6307 45.0337 28.6611 45.0337 28.7067 45.0337V45.4896H29.6489V45.1401C29.8464 45.1553 30.044 45.1553 30.2112 45.1401V45.4744H31.1534V44.1219H30.2112V44.7753C30.0592 44.7753 29.8616 44.7753 29.6489 44.7601V44.1219H28.7067V44.5778C28.4787 44.4866 28.2964 44.365 28.1596 44.1979L27.4302 44.1067Z" fill="#D17918"/>
<path d="M33.3418 44.4562C33.3418 45.5808 30.9559 46.5078 28.023 46.5078C25.09 46.5078 22.7041 45.596 22.7041 44.4562C22.7041 43.3317 25.09 42.4047 28.023 42.4047C30.9559 42.4047 33.3418 43.3165 33.3418 44.4562ZM34.5575 44.4562C34.5575 43.0733 31.6246 41.9488 28.023 41.9488C24.4062 41.9488 21.4884 43.0733 21.4884 44.4562C21.4884 45.8391 24.4214 46.9637 28.023 46.9637C31.6246 46.9637 34.5575 45.8391 34.5575 44.4562Z" fill="#FFC022"/>
<path d="M23.4031 44.4562C23.4031 43.4836 25.4698 42.6782 28.0229 42.6782C30.5759 42.6782 32.6427 43.4684 32.6427 44.4562C32.6427 45.4288 30.5759 46.2342 28.0229 46.2342C25.4698 46.219 23.4031 45.4288 23.4031 44.4562ZM32.4299 44.4562C32.4299 43.514 30.4543 42.7542 28.0077 42.7542C25.5762 42.7542 23.5854 43.514 23.5854 44.4562C23.5854 45.3984 25.561 46.1582 28.0077 46.1582C30.4543 46.143 32.4299 45.3832 32.4299 44.4562Z" fill="#FFC022"/>
<path d="M27.4302 43.7572L24.9075 44.4866V44.9881L27.491 44.1827C27.7493 44.3954 28.114 44.5474 28.5851 44.6538C28.6307 44.669 28.6611 44.669 28.7067 44.6842V45.1401H29.6489V44.7905C29.8464 44.8057 30.044 44.8057 30.2112 44.7905V45.1249H31.1534V43.7724H30.2112V44.4258C30.0592 44.4258 29.8616 44.4258 29.6489 44.4106V43.7724H28.7067V44.2283C28.4787 44.1371 28.2964 44.0155 28.1596 43.8483L27.4302 43.7572Z" fill="#FFC022"/>
<path d="M21.4731 43.1189C21.4731 44.5018 24.4061 45.6264 28.0077 45.6264C31.6245 45.6264 34.5423 44.5018 34.5423 43.1189V41.9336H21.4731V43.1189Z" fill="#FF931E"/>
<path d="M27.3999 42.5414V45.6264C27.5975 45.6264 27.8102 45.6415 28.023 45.6415V42.5566H27.3999V42.5414Z" fill="#D17918"/>
<path d="M26.1385 42.5414V45.52C26.4728 45.5656 26.8223 45.5808 27.1871 45.6112V42.5414H26.1385Z" fill="#D17918"/>
<path d="M25.8801 45.5048V41.9488H21.4883V43.1341C21.4731 44.2283 23.3119 45.1553 25.8801 45.5048Z" fill="#D17918"/>
<path d="M30.348 42.5414V45.4744C30.4239 45.4592 30.4847 45.4592 30.5607 45.444V42.5566H30.348V42.5414Z" fill="#D17918"/>
<path d="M29.5274 45.5656C29.6034 45.5656 29.6642 45.5504 29.7402 45.5504V42.5414H29.5274V45.5656Z" fill="#D17918"/>
<path d="M28.4941 42.5414V45.6264C28.6005 45.6264 28.7068 45.6264 28.798 45.6112V42.5414H28.4941Z" fill="#D17918"/>
<path d="M28.023 44.4562C24.4062 44.4562 21.4884 43.3317 21.4884 41.9488C21.4884 40.5659 24.4214 39.4413 28.023 39.4413C31.6398 39.4413 34.5575 40.5659 34.5575 41.9488C34.5575 43.3165 31.6246 44.4562 28.023 44.4562Z" fill="#FF931E"/>
<path opacity="0.4" d="M31.7006 44.0155C31.5182 44.0155 31.3206 44.0307 31.1383 44.0307C27.5215 44.0307 24.6037 42.9062 24.6037 41.5233C24.6037 40.6571 25.7283 39.8972 27.4607 39.4413C24.1174 39.5477 21.4884 40.6267 21.4884 41.9488C21.4884 43.3317 24.4214 44.4562 28.023 44.4562C29.3755 44.4562 30.652 44.2891 31.7006 44.0155Z" fill="url(#paint2_linear_1_142)"/>
<path d="M34.5423 42.0095C34.4359 40.657 31.5485 39.5781 28.0077 39.5781C24.4669 39.5781 21.5795 40.657 21.4731 42.0095C21.5795 43.362 24.4669 44.441 28.0077 44.441C31.5637 44.4562 34.4359 43.362 34.5423 42.0095ZM28.0229 44.1371C25.0899 44.1371 22.7041 43.2253 22.7041 42.0855C22.7041 40.9458 25.0899 40.034 28.0229 40.034C30.9559 40.034 33.3417 40.9458 33.3417 42.0855C33.3417 43.2253 30.9559 44.1371 28.0229 44.1371Z" fill="#D17918"/>
<path d="M27.4302 41.584L24.9075 42.3135V42.815L27.491 42.0247C27.7493 42.2375 28.114 42.3895 28.5851 42.4958C28.6307 42.511 28.6611 42.511 28.7067 42.511V42.9669H29.6489V42.6174C29.8464 42.6326 30.044 42.6326 30.2112 42.6174V42.9517H31.1534V41.5992H30.2112V42.2527C30.0592 42.2527 29.8616 42.2527 29.6489 42.2527V41.6144H28.7067V42.0703C28.4787 41.9792 28.2964 41.8576 28.1596 41.6904L27.4302 41.584Z" fill="#D17918"/>
<path d="M33.3418 41.9336C33.3418 43.0581 30.9559 43.9851 28.023 43.9851C25.09 43.9851 22.7041 43.0733 22.7041 41.9336C22.7041 40.809 25.09 39.882 28.023 39.882C30.9559 39.882 33.3418 40.809 33.3418 41.9336ZM34.5575 41.9336C34.5575 40.5507 31.6246 39.4261 28.023 39.4261C24.4062 39.4261 21.4884 40.5507 21.4884 41.9336C21.4884 43.3165 24.4214 44.441 28.023 44.441C31.6246 44.4562 34.5575 43.3165 34.5575 41.9336Z" fill="#FFC022"/>
<path d="M23.4031 41.9336C23.4031 40.961 25.4698 40.1556 28.0229 40.1556C30.5759 40.1556 32.6427 40.9458 32.6427 41.9336C32.6427 42.9062 30.5759 43.7116 28.0229 43.7116C25.4698 43.7116 23.4031 42.9214 23.4031 41.9336ZM32.4299 41.9336C32.4299 40.9914 30.4543 40.2315 28.0077 40.2315C25.5762 40.2315 23.5854 40.9914 23.5854 41.9336C23.5854 42.8758 25.561 43.6356 28.0077 43.6356C30.4543 43.6356 32.4299 42.8758 32.4299 41.9336Z" fill="#FFC022"/>
<path d="M27.4302 41.2497L24.9075 41.9792V42.4807L27.491 41.6752C27.7493 41.888 28.114 42.04 28.5851 42.1463C28.6307 42.1615 28.6611 42.1615 28.7067 42.1767V42.6326H29.6489V42.2831C29.8464 42.2983 30.044 42.2983 30.2112 42.2831V42.6174H31.1534V41.2649H30.2112V41.9184C30.0592 41.9184 29.8616 41.9184 29.6489 41.9032V41.2649H28.7067V41.7208C28.4787 41.6296 28.2964 41.5081 28.1596 41.3409L27.4302 41.2497Z" fill="#FFC022"/>
<path d="M37.5817 43.3165C37.5817 44.6994 40.5146 45.8239 44.1162 45.8239C47.733 45.8239 50.6508 44.6994 50.6508 43.3165V42.1311H37.5817V43.3165Z" fill="#FF931E"/>
<path d="M43.4933 42.739V45.8239C43.6909 45.8239 43.9037 45.8391 44.1164 45.8391V42.7542H43.4933V42.739Z" fill="#D17918"/>
<path d="M42.2321 42.739V45.7175C42.5664 45.7631 42.9159 45.7783 43.2806 45.8087V42.739H42.2321Z" fill="#D17918"/>
<path d="M41.9735 45.7023V42.1463H37.5817V43.3317C37.5817 44.4258 39.4053 45.3528 41.9735 45.7023Z" fill="#D17918"/>
<path d="M46.4415 42.739V45.6719C46.5175 45.6567 46.5783 45.6567 46.6543 45.6415V42.7542H46.4415V42.739Z" fill="#D17918"/>
<path d="M45.621 45.7631C45.697 45.7631 45.7577 45.7479 45.8337 45.7479V42.739H45.621V45.7631Z" fill="#D17918"/>
<path d="M44.6027 42.739V45.8239C44.7091 45.8239 44.8155 45.8239 44.9067 45.8087V42.739H44.6027Z" fill="#D17918"/>
<path d="M44.1162 44.6538C40.4994 44.6538 37.5817 43.5292 37.5817 42.1463C37.5817 40.7634 40.5146 39.6389 44.1162 39.6389C47.733 39.6389 50.6508 40.7634 50.6508 42.1463C50.6508 43.5292 47.7178 44.6538 44.1162 44.6538Z" fill="#FF931E"/>
<path opacity="0.4" d="M47.7938 44.2131C47.6115 44.2131 47.4139 44.2283 47.2315 44.2283C43.6147 44.2283 40.697 43.1037 40.697 41.7208C40.697 40.8546 41.8215 40.0948 43.554 39.6389C40.2107 39.7452 37.5817 40.8242 37.5817 42.1463C37.5817 43.5292 40.5146 44.6538 44.1162 44.6538C45.4839 44.6538 46.7453 44.4866 47.7938 44.2131Z" fill="url(#paint3_linear_1_142)"/>
<path d="M50.6508 42.2071C50.5444 40.8546 47.6571 39.7756 44.1162 39.7756C40.5754 39.7756 37.688 40.8546 37.5817 42.2071C37.688 43.5596 40.5754 44.6386 44.1162 44.6386C47.6571 44.6538 50.5292 43.5596 50.6508 42.2071ZM44.1162 44.3346C41.1833 44.3346 38.7974 43.4228 38.7974 42.2831C38.7974 41.1585 41.1833 40.2315 44.1162 40.2315C47.0492 40.2315 49.4351 41.1433 49.4351 42.2831C49.4351 43.4228 47.0492 44.3346 44.1162 44.3346Z" fill="#D17918"/>
<path d="M43.5237 41.7816L41.001 42.511V43.0125L43.5845 42.2223C43.8428 42.4351 44.2075 42.587 44.6786 42.6934C44.7242 42.7086 44.7546 42.7086 44.8002 42.7238V43.1797H45.7424V42.8302C45.94 42.8454 46.1375 42.8454 46.3047 42.8302V43.1645H47.2469V41.812H46.2895V42.4655C46.1375 42.4655 45.94 42.4655 45.7272 42.4655V41.8272H44.785V42.2831C44.5571 42.1919 44.3747 42.0703 44.2379 41.9032L43.5237 41.7816Z" fill="#D17918"/>
<path d="M49.4349 42.1311C49.4349 43.2557 47.049 44.1827 44.116 44.1827C41.1831 44.1827 38.7972 43.2709 38.7972 42.1311C38.7972 41.0066 41.1831 40.0796 44.116 40.0796C47.049 40.0948 49.4349 41.0066 49.4349 42.1311ZM50.6506 42.1311C50.6506 40.7482 47.7177 39.6237 44.116 39.6237C40.4992 39.6237 37.5815 40.7482 37.5815 42.1311C37.5815 43.514 40.5144 44.6386 44.116 44.6386C47.7177 44.6538 50.6506 43.5292 50.6506 42.1311Z" fill="#FFC022"/>
<path d="M39.4964 42.1311C39.4964 41.1585 41.5631 40.3531 44.1162 40.3531C46.6692 40.3531 48.736 41.1433 48.736 42.1311C48.736 43.1037 46.6692 43.9091 44.1162 43.9091C41.5631 43.9091 39.4964 43.1189 39.4964 42.1311ZM48.5232 42.1311C48.5232 41.1889 46.5477 40.4291 44.101 40.4291C41.6695 40.4291 39.6788 41.1889 39.6788 42.1311C39.6788 43.0733 41.6543 43.8331 44.101 43.8331C46.5477 43.8331 48.5232 43.0733 48.5232 42.1311Z" fill="#FFC022"/>
<path d="M43.5237 41.4473L41.001 42.1767V42.6782L43.5845 41.8728C43.8428 42.0855 44.2075 42.2375 44.6786 42.3439C44.7242 42.3591 44.7546 42.3591 44.8002 42.3743V42.8302H45.7424V42.4806C45.94 42.4958 46.1375 42.4958 46.3047 42.4806V42.815H47.2469V41.4625H46.2895V42.1159C46.1375 42.1159 45.94 42.1159 45.7272 42.1159V41.4777H44.785V41.9336C44.5571 41.8424 44.3747 41.7208 44.2379 41.5536L43.5237 41.4473Z" fill="#FFC022"/>
<path d="M37.5817 40.809C37.5817 42.1919 40.5146 43.3165 44.1162 43.3165C47.733 43.3165 50.6508 42.1919 50.6508 40.809V39.6237H37.5817V40.809Z" fill="#FF931E"/>
<path d="M43.4933 40.2315V43.3165C43.6909 43.3165 43.9037 43.3317 44.1164 43.3317V40.2467H43.4933V40.2315Z" fill="#D17918"/>
<path d="M42.2321 40.2315V43.2101C42.5664 43.2557 42.9159 43.2709 43.2806 43.3013V40.2315H42.2321Z" fill="#D17918"/>
<path d="M41.9735 43.1797V39.6237H37.5817V40.809C37.5817 41.9032 39.4053 42.8454 41.9735 43.1797Z" fill="#D17918"/>
<path d="M46.4415 40.2315V43.1645C46.5175 43.1493 46.5783 43.1493 46.6543 43.1341V40.2467H46.4415V40.2315Z" fill="#D17918"/>
<path d="M45.621 43.2557C45.697 43.2557 45.7577 43.2405 45.8337 43.2405V40.2315H45.621V43.2557Z" fill="#D17918"/>
<path d="M44.6027 40.2315V43.3165C44.7091 43.3165 44.8155 43.3165 44.9067 43.3013V40.2315H44.6027Z" fill="#D17918"/>
<path d="M44.116 42.1311C40.4992 42.1311 37.5815 41.0066 37.5815 39.6237C37.5815 38.2408 40.5144 37.1162 44.116 37.1162C47.7329 37.1162 50.6506 38.2408 50.6506 39.6237C50.6506 41.0066 47.7177 42.1311 44.116 42.1311Z" fill="#FF931E"/>
<path opacity="0.4" d="M47.7936 41.6904C47.6113 41.6904 47.4137 41.7056 47.2314 41.7056C43.6146 41.7056 40.6968 40.5811 40.6968 39.1982C40.6968 38.332 41.8214 37.5721 43.5538 37.1162C40.2105 37.2226 37.5815 38.3016 37.5815 39.6237C37.5815 41.0066 40.5144 42.1311 44.116 42.1311C45.4837 42.1311 46.7451 41.9792 47.7936 41.6904Z" fill="url(#paint4_linear_1_142)"/>
<path d="M50.6508 39.6997C50.5444 38.3472 47.6571 37.2682 44.1162 37.2682C40.5754 37.2682 37.688 38.3472 37.5817 39.6997C37.688 41.0522 40.5754 42.1311 44.1162 42.1311C47.6571 42.1311 50.5292 41.0522 50.6508 39.6997ZM44.1162 41.8272C41.1833 41.8272 38.7974 40.9154 38.7974 39.7756C38.7974 38.6511 41.1833 37.7241 44.1162 37.7241C47.0492 37.7241 49.4351 38.6359 49.4351 39.7756C49.4351 40.9002 47.0492 41.8272 44.1162 41.8272Z" fill="#D17918"/>
<path d="M43.5237 39.2742L41.001 40.0036V40.5051L43.5845 39.7149C43.8428 39.9276 44.2075 40.0796 44.6786 40.186C44.7242 40.2012 44.7546 40.2012 44.8002 40.2012V40.6571H45.7424V40.3075C45.94 40.3227 46.1375 40.3227 46.3047 40.3075V40.6419H47.2469V39.2894H46.2895V39.9428C46.1375 39.9428 45.94 39.9428 45.7272 39.9276V39.2894H44.785V39.7453C44.5571 39.6541 44.3747 39.5325 44.2379 39.3653L43.5237 39.2742Z" fill="#D17918"/>
<path d="M49.4349 39.6237C49.4349 40.7482 47.049 41.6752 44.116 41.6752C41.1831 41.6752 38.7972 40.7634 38.7972 39.6237C38.7972 38.4991 41.1831 37.5721 44.116 37.5721C47.049 37.5721 49.4349 38.4991 49.4349 39.6237ZM50.6506 39.6237C50.6506 38.2408 47.7177 37.1162 44.116 37.1162C40.4992 37.1162 37.5815 38.2408 37.5815 39.6237C37.5815 41.0066 40.5144 42.1311 44.116 42.1311C47.7177 42.1311 50.6506 41.0066 50.6506 39.6237Z" fill="#FFC022"/>
<path d="M39.4964 39.6237C39.4964 38.6511 41.5631 37.8457 44.1162 37.8457C46.6692 37.8457 48.736 38.6359 48.736 39.6237C48.736 40.5963 46.6692 41.4017 44.1162 41.4017C41.5631 41.4017 39.4964 40.5963 39.4964 39.6237ZM48.5232 39.6237C48.5232 38.6815 46.5477 37.9217 44.101 37.9217C41.6695 37.9217 39.6788 38.6815 39.6788 39.6237C39.6788 40.5659 41.6543 41.3257 44.101 41.3257C46.5477 41.3257 48.5232 40.5507 48.5232 39.6237Z" fill="#FFC022"/>
<path d="M43.5237 38.9398L41.001 39.6693V40.1708L43.5845 39.3653C43.8428 39.5781 44.2075 39.7301 44.6786 39.8364C44.7242 39.8516 44.7546 39.8516 44.8002 39.8668V40.3227H45.7424V39.9732C45.94 39.9884 46.1375 39.9884 46.3047 39.9732V40.3075H47.2469V38.955H46.2895V39.6085C46.1375 39.6085 45.94 39.6085 45.7272 39.5933V38.955H44.785V39.4109C44.5571 39.3197 44.3747 39.1982 44.2379 39.031L43.5237 38.9398Z" fill="#FFC022"/>
<path d="M37.5817 38.3015C37.5817 39.6844 40.5146 40.809 44.1162 40.809C47.733 40.809 50.6508 39.6844 50.6508 38.3015V37.1162H37.5817V38.3015Z" fill="#FF931E"/>
<path d="M43.4933 37.7241V40.809C43.6909 40.809 43.9037 40.8242 44.1164 40.8242V37.7393H43.4933V37.7241Z" fill="#D17918"/>
<path d="M42.2321 37.7241V40.7026C42.5664 40.7482 42.9159 40.7634 43.2806 40.7938V37.7241H42.2321Z" fill="#D17918"/>
<path d="M41.9735 40.6722V37.1162H37.5817V38.3015C37.5817 39.3957 39.4053 40.3227 41.9735 40.6722Z" fill="#D17918"/>
<path d="M46.4415 37.7241V40.657C46.5175 40.6418 46.5783 40.6418 46.6543 40.6266V37.7393H46.4415V37.7241Z" fill="#D17918"/>
<path d="M45.621 40.733C45.697 40.733 45.7577 40.7178 45.8337 40.7178V37.7089H45.621V40.733Z" fill="#D17918"/>
<path d="M44.6027 37.7241V40.809C44.7091 40.809 44.8155 40.809 44.9067 40.7938V37.7241H44.6027Z" fill="#D17918"/>
<path d="M44.1162 39.6237C40.4994 39.6237 37.5817 38.4991 37.5817 37.1162C37.5817 35.7333 40.5146 34.6088 44.1162 34.6088C47.733 34.6088 50.6508 35.7333 50.6508 37.1162C50.6508 38.4991 47.7178 39.6237 44.1162 39.6237Z" fill="#FF931E"/>
<path opacity="0.4" d="M47.7938 39.183C47.6115 39.183 47.4139 39.1982 47.2315 39.1982C43.6147 39.1982 40.697 38.0736 40.697 36.6907C40.697 35.8245 41.8215 35.0647 43.554 34.6088C40.2107 34.7151 37.5817 35.7941 37.5817 37.1162C37.5817 38.4991 40.5146 39.6237 44.1162 39.6237C45.4839 39.6237 46.7453 39.4565 47.7938 39.183Z" fill="url(#paint5_linear_1_142)"/>
<path d="M50.6508 37.1922C50.5444 35.8397 47.6571 34.7607 44.1162 34.7607C40.5754 34.7607 37.688 35.8397 37.5817 37.1922C37.688 38.5447 40.5754 39.6237 44.1162 39.6237C47.6571 39.6237 50.5292 38.5295 50.6508 37.1922ZM44.1162 39.3045C41.1833 39.3045 38.7974 38.3927 38.7974 37.253C38.7974 36.1284 41.1833 35.2014 44.1162 35.2014C47.0492 35.2014 49.4351 36.1132 49.4351 37.253C49.4351 38.3927 47.0492 39.3045 44.1162 39.3045Z" fill="#D17918"/>
<path d="M43.5237 36.7515L41.001 37.4809V37.9824L43.5845 37.1922C43.8428 37.405 44.2075 37.5569 44.6786 37.6633C44.7242 37.6785 44.7546 37.6785 44.8002 37.6785V38.1344H45.7424V37.7849C45.94 37.8001 46.1375 37.8001 46.3047 37.7849V38.1192H47.2469V36.7667H46.2895V37.4202C46.1375 37.4202 45.94 37.4202 45.7272 37.4202V36.7819H44.785V37.2378C44.5571 37.1466 44.3747 37.025 44.2379 36.8579L43.5237 36.7515Z" fill="#D17918"/>
<path d="M49.4349 37.101C49.4349 38.2256 47.049 39.1526 44.116 39.1526C41.1831 39.1526 38.7972 38.2408 38.7972 37.101C38.7972 35.9765 41.1831 35.0495 44.116 35.0495C47.049 35.0647 49.4349 35.9765 49.4349 37.101ZM50.6506 37.101C50.6506 35.7181 47.7177 34.5936 44.116 34.5936C40.4992 34.5936 37.5815 35.7181 37.5815 37.101C37.5815 38.4839 40.5144 39.6085 44.116 39.6085C47.7177 39.6237 50.6506 38.4991 50.6506 37.101Z" fill="#FFC022"/>
<path d="M39.4964 37.101C39.4964 36.1284 41.5631 35.323 44.1162 35.323C46.6692 35.323 48.736 36.1132 48.736 37.101C48.736 38.0736 46.6692 38.879 44.1162 38.879C41.5631 38.879 39.4964 38.0888 39.4964 37.101ZM48.5232 37.101C48.5232 36.1588 46.5477 35.399 44.101 35.399C41.6695 35.399 39.6788 36.1588 39.6788 37.101C39.6788 38.0432 41.6543 38.803 44.101 38.803C46.5477 38.803 48.5232 38.0432 48.5232 37.101Z" fill="#FFC022"/>
<path d="M43.5237 36.4172L41.001 37.1466V37.6481L43.5845 36.8427C43.8428 37.0554 44.2075 37.2074 44.6786 37.3138C44.7242 37.329 44.7546 37.329 44.8002 37.3442V37.8001H45.7424V37.4505C45.94 37.4657 46.1375 37.4657 46.3047 37.4505V37.7849H47.2469V36.4324H46.2895V37.0858C46.1375 37.0858 45.94 37.0858 45.7272 37.0706V36.4324H44.785V36.8883C44.5571 36.7971 44.3747 36.6755 44.2379 36.5083L43.5237 36.4172Z" fill="#FFC022"/>
<path d="M37.5817 35.7789C37.5817 37.1618 40.5146 38.2864 44.1162 38.2864C47.733 38.2864 50.6508 37.1618 50.6508 35.7789V34.5936H37.5817V35.7789Z" fill="#FF931E"/>
<path d="M43.4933 35.2014V38.2864C43.6909 38.2864 43.9037 38.3016 44.1164 38.3016V35.2166H43.4933V35.2014Z" fill="#D17918"/>
<path d="M42.2321 35.2014V38.18C42.5664 38.2256 42.9159 38.2408 43.2806 38.2712V35.2014H42.2321Z" fill="#D17918"/>
<path d="M41.9735 38.1496V34.5936H37.5817V35.7789C37.5817 36.8731 39.4053 37.8153 41.9735 38.1496Z" fill="#D17918"/>
<path d="M46.4415 35.2014V38.1344C46.5175 38.1192 46.5783 38.1192 46.6543 38.104V35.2166H46.4415V35.2014Z" fill="#D17918"/>
<path d="M45.621 38.2256C45.697 38.2256 45.7577 38.2104 45.8337 38.2104V35.2014H45.621V38.2256Z" fill="#D17918"/>
<path d="M44.6027 35.2014V38.2864C44.7091 38.2864 44.8155 38.2864 44.9067 38.2712V35.2014H44.6027Z" fill="#D17918"/>
<path d="M44.116 37.101C40.4992 37.101 37.5815 35.9765 37.5815 34.5936C37.5815 33.2107 40.5144 32.0861 44.116 32.0861C47.7329 32.0861 50.6506 33.2107 50.6506 34.5936C50.6506 35.9765 47.7177 37.101 44.116 37.101Z" fill="#FF931E"/>
<path opacity="0.4" d="M47.7938 36.6755C47.6115 36.6755 47.4139 36.6907 47.2315 36.6907C43.6147 36.6907 40.697 35.5662 40.697 34.1833C40.697 33.317 41.8215 32.5572 43.554 32.1013C40.2107 32.2077 37.5817 33.2867 37.5817 34.6088C37.5817 35.9917 40.5146 37.1162 44.1162 37.1162C45.4839 37.101 46.7453 36.9491 47.7938 36.6755Z" fill="url(#paint6_linear_1_142)"/>
<path d="M50.6508 34.6696C50.5444 33.3171 47.6571 32.2381 44.1162 32.2381C40.5754 32.2381 37.688 33.3171 37.5817 34.6696C37.688 36.0221 40.5754 37.101 44.1162 37.101C47.6571 37.101 50.5292 36.0221 50.6508 34.6696ZM44.1162 36.7971C41.1833 36.7971 38.7974 35.8853 38.7974 34.7455C38.7974 33.621 41.1833 32.694 44.1162 32.694C47.0492 32.694 49.4351 33.6058 49.4351 34.7455C49.4351 35.8701 47.0492 36.7971 44.1162 36.7971Z" fill="#D17918"/>
<path d="M43.5237 34.244L41.001 34.9735V35.475L43.5845 34.6848C43.8428 34.8975 44.2075 35.0495 44.6786 35.1558C44.7242 35.171 44.7546 35.171 44.8002 35.1862V35.6421H45.7424V35.2926C45.94 35.3078 46.1375 35.3078 46.3047 35.2926V35.6269H47.2469V34.2744H46.2895V34.9279C46.1375 34.9279 45.94 34.9279 45.7272 34.9279V34.2896H44.785V34.7455C44.5571 34.6544 44.3747 34.5328 44.2379 34.3656L43.5237 34.244Z" fill="#D17918"/>
<path d="M49.4349 34.5936C49.4349 35.7181 47.049 36.6451 44.116 36.6451C41.1831 36.6451 38.7972 35.7333 38.7972 34.5936C38.7972 33.469 41.1831 32.542 44.116 32.542C47.049 32.542 49.4349 33.469 49.4349 34.5936ZM50.6506 34.5936C50.6506 33.2107 47.7177 32.0861 44.116 32.0861C40.4992 32.0861 37.5815 33.2107 37.5815 34.5936C37.5815 35.9765 40.5144 37.101 44.116 37.101C47.7177 37.101 50.6506 35.9765 50.6506 34.5936Z" fill="#FFC022"/>
<path d="M39.4964 34.5936C39.4964 33.621 41.5631 32.8156 44.1162 32.8156C46.6692 32.8156 48.736 33.6058 48.736 34.5936C48.736 35.5662 46.6692 36.3716 44.1162 36.3716C41.5631 36.3716 39.4964 35.5662 39.4964 34.5936ZM48.5232 34.5936C48.5232 33.6514 46.5477 32.8915 44.101 32.8915C41.6695 32.8915 39.6788 33.6514 39.6788 34.5936C39.6788 35.5358 41.6543 36.2956 44.101 36.2956C46.5477 36.2956 48.5232 35.5358 48.5232 34.5936Z" fill="#FFC022"/>
<path d="M43.5237 33.9097L41.001 34.6392V35.1407L43.5845 34.3352C43.8428 34.548 44.2075 34.7 44.6786 34.8063C44.7242 34.8215 44.7546 34.8215 44.8002 34.8367V35.2926H45.7424V34.9431C45.94 34.9583 46.1375 34.9583 46.3047 34.9431V35.2774H47.2469V33.9249H46.2895V34.5784C46.1375 34.5784 45.94 34.5784 45.7272 34.5784V33.9401H44.785V34.396C44.5571 34.3048 44.3747 34.1833 44.2379 34.0161L43.5237 33.9097Z" fill="#FFC022"/>
<path d="M37.5817 33.2715C37.5817 34.6544 40.5146 35.7789 44.1162 35.7789C47.733 35.7789 50.6508 34.6544 50.6508 33.2715V32.0861H37.5817V33.2715Z" fill="#FF931E"/>
<path d="M43.4933 32.694V35.7789C43.6909 35.7789 43.9037 35.7941 44.1164 35.7941V32.7092H43.4933V32.694Z" fill="#D17918"/>
<path d="M42.2321 32.694V35.6725C42.5664 35.7181 42.9159 35.7333 43.2806 35.7637V32.694H42.2321Z" fill="#D17918"/>
<path d="M41.9735 35.6421V32.0861H37.5817V33.2715C37.5817 34.3656 39.4053 35.3078 41.9735 35.6421Z" fill="#D17918"/>
<path d="M46.4415 32.694V35.627C46.5175 35.6118 46.5783 35.6118 46.6543 35.5966V32.7092H46.4415V32.694Z" fill="#D17918"/>
<path d="M45.621 35.7181C45.697 35.7181 45.7577 35.7029 45.8337 35.7029V32.694H45.621V35.7181Z" fill="#D17918"/>
<path d="M44.6027 32.694V35.7789C44.7091 35.7789 44.8155 35.7789 44.9067 35.7637V32.694H44.6027Z" fill="#D17918"/>
<path d="M44.116 34.5936C40.4992 34.5936 37.5815 33.469 37.5815 32.0861C37.5815 30.7032 40.5144 29.5787 44.116 29.5787C47.7329 29.5787 50.6506 30.7032 50.6506 32.0861C50.6506 33.469 47.7177 34.5936 44.116 34.5936Z" fill="#FF931E"/>
<path opacity="0.4" d="M47.7936 34.1529C47.6113 34.1529 47.4137 34.1681 47.2314 34.1681C43.6146 34.1681 40.6968 33.0435 40.6968 31.6606C40.6968 30.7944 41.8214 30.0346 43.5538 29.5787C40.2105 29.6851 37.5815 30.764 37.5815 32.0861C37.5815 33.469 40.5144 34.5936 44.116 34.5936C45.4837 34.5936 46.7451 34.4264 47.7936 34.1529Z" fill="url(#paint7_linear_1_142)"/>
<path d="M50.6508 32.1621C50.5444 30.8096 47.6571 29.7307 44.1162 29.7307C40.5754 29.7307 37.688 30.8096 37.5817 32.1621C37.688 33.5146 40.5754 34.5936 44.1162 34.5936C47.6571 34.5936 50.5292 33.5146 50.6508 32.1621ZM44.1162 34.2745C41.1833 34.2745 38.7974 33.3627 38.7974 32.2229C38.7974 31.0984 41.1833 30.1714 44.1162 30.1714C47.0492 30.1714 49.4351 31.0832 49.4351 32.2229C49.4351 33.3627 47.0492 34.2745 44.1162 34.2745Z" fill="#D17918"/>
<path d="M43.5237 31.7366L41.001 32.466V32.9675L43.5845 32.1773C43.8428 32.3901 44.2075 32.542 44.6786 32.6484C44.7242 32.6636 44.7546 32.6636 44.8002 32.6636V33.1195H45.7424V32.7548C45.94 32.77 46.1375 32.77 46.3047 32.7548V33.0891H47.2469V31.7366H46.2895V32.3901C46.1375 32.3901 45.94 32.3901 45.7272 32.3749V31.7366H44.785V32.1925C44.5571 32.1013 44.3747 31.9797 44.2379 31.8126L43.5237 31.7366Z" fill="#D17918"/>
<path d="M49.4349 32.0861C49.4349 33.2107 47.049 34.1377 44.116 34.1377C41.1831 34.1377 38.7972 33.2259 38.7972 32.0861C38.7972 30.9616 41.1831 30.0346 44.116 30.0346C47.049 30.0346 49.4349 30.9464 49.4349 32.0861ZM50.6506 32.0861C50.6506 30.7032 47.7177 29.5787 44.116 29.5787C40.4992 29.5787 37.5815 30.7032 37.5815 32.0861C37.5815 33.469 40.5144 34.5936 44.116 34.5936C47.7177 34.5936 50.6506 33.469 50.6506 32.0861Z" fill="#FFC022"/>
<path d="M39.4964 32.0861C39.4964 31.1135 41.5631 30.3081 44.1162 30.3081C46.6692 30.3081 48.736 31.0983 48.736 32.0861C48.736 33.0587 46.6692 33.8641 44.1162 33.8641C41.5631 33.8489 39.4964 33.0587 39.4964 32.0861ZM48.5232 32.0861C48.5232 31.1439 46.5477 30.3841 44.101 30.3841C41.6695 30.3841 39.6788 31.1439 39.6788 32.0861C39.6788 33.0283 41.6543 33.7881 44.101 33.7881C46.5477 33.7729 48.5232 33.0131 48.5232 32.0861Z" fill="#FFC022"/>
<path d="M43.5237 31.3871L41.001 32.1165V32.618L43.5845 31.8126C43.8428 32.0253 44.2075 32.1773 44.6786 32.2837C44.7242 32.2989 44.7546 32.2989 44.8002 32.3141V32.77H45.7424V32.4205C45.94 32.4357 46.1375 32.4357 46.3047 32.4205V32.7548H47.2469V31.4023H46.2895V32.0557C46.1375 32.0557 45.94 32.0557 45.7272 32.0557V31.4175H44.785V31.8734C44.5571 31.7822 44.3747 31.6606 44.2379 31.4935L43.5237 31.3871Z" fill="#FFC022"/>
<path d="M31.6699 50.9148C31.6699 52.2977 34.6029 53.4222 38.2045 53.4222C41.8213 53.4222 44.7391 52.2977 44.7391 50.9148V49.7295H31.6699V50.9148Z" fill="#FF931E"/>
<path d="M37.5812 50.3373V53.4222C37.7788 53.4222 37.9915 53.4374 38.2043 53.4374V50.3525H37.5812V50.3373Z" fill="#D17918"/>
<path d="M36.32 50.3373V53.3159C36.6543 53.3615 37.0039 53.3767 37.3686 53.407V50.3373H36.32Z" fill="#D17918"/>
<path d="M36.0618 53.3007V49.7446H31.6699V50.93C31.6699 52.0241 33.5087 52.9511 36.0618 53.3007Z" fill="#D17918"/>
<path d="M40.5295 50.3373V53.2703C40.6055 53.2551 40.6662 53.2551 40.7422 53.2399V50.3525H40.5295V50.3373Z" fill="#D17918"/>
<path d="M39.7241 53.3615C39.8001 53.3615 39.8609 53.3463 39.9369 53.3463V50.3373H39.7241V53.3615Z" fill="#D17918"/>
<path d="M38.6906 50.3373V53.4222C38.797 53.4222 38.9034 53.4222 38.9945 53.4071V50.3373H38.6906Z" fill="#D17918"/>
<path d="M38.2045 52.2521C34.5877 52.2521 31.6699 51.1275 31.6699 49.7446C31.6699 48.3618 34.6029 47.2372 38.2045 47.2372C41.8213 47.2372 44.7391 48.3618 44.7391 49.7446C44.7391 51.1275 41.8061 52.2521 38.2045 52.2521Z" fill="#FF931E"/>
<path opacity="0.4" d="M41.8821 51.8114C41.6997 51.8114 41.5022 51.8266 41.3198 51.8266C37.703 51.8266 34.7852 50.702 34.7852 49.3191C34.7852 48.4529 35.9098 47.6931 37.6422 47.2372C34.2989 47.3436 31.6699 48.4225 31.6699 49.7446C31.6699 51.1275 34.6029 52.2521 38.2045 52.2521C39.5722 52.2521 40.8335 52.0849 41.8821 51.8114Z" fill="url(#paint8_linear_1_142)"/>
<path d="M44.7391 49.8054C44.6327 48.4529 41.7453 47.374 38.2045 47.374C34.6637 47.374 31.7763 48.4529 31.6699 49.8054C31.7763 51.1579 34.6637 52.2369 38.2045 52.2369C41.7453 52.2521 44.6327 51.1579 44.7391 49.8054ZM38.2045 51.933C35.2715 51.933 32.8857 51.0212 32.8857 49.8814C32.8857 48.7569 35.2715 47.8299 38.2045 47.8299C41.1374 47.8299 43.5233 48.7417 43.5233 49.8814C43.5233 51.0212 41.1374 51.933 38.2045 51.933Z" fill="#D17918"/>
<path d="M37.6119 49.3799L35.0892 50.1094V50.6109L37.6727 49.8206C37.931 50.0334 38.2957 50.1854 38.7668 50.2917C38.8124 50.3069 38.8428 50.3069 38.8884 50.3221V50.778H39.8306V50.4285C40.0282 50.4437 40.2257 50.4437 40.3929 50.4285V50.7628H41.3351V49.4103H40.3929V50.0638C40.2409 50.0638 40.0433 50.0638 39.8306 50.0638V49.4255H38.8884V49.8814C38.6605 49.7902 38.4781 49.6687 38.3413 49.5015L37.6119 49.3799Z" fill="#D17918"/>
<path d="M43.5234 49.7295C43.5234 50.854 41.1376 51.781 38.2046 51.781C35.2717 51.781 32.8858 50.8692 32.8858 49.7295C32.8858 48.5897 35.2717 47.6779 38.2046 47.6779C41.1376 47.6931 43.5234 48.6049 43.5234 49.7295ZM44.7392 49.7295C44.7392 48.3466 41.8062 47.222 38.2046 47.222C34.5878 47.222 31.67 48.3466 31.67 49.7295C31.67 51.1123 34.603 52.2369 38.2046 52.2369C41.8062 52.2521 44.7392 51.1275 44.7392 49.7295Z" fill="#FFC022"/>
<path d="M33.5847 49.7295C33.5847 48.7569 35.6514 47.9514 38.2044 47.9514C40.7575 47.9514 42.8242 48.7417 42.8242 49.7295C42.8242 50.702 40.7575 51.5075 38.2044 51.5075C35.6514 51.5075 33.5847 50.7172 33.5847 49.7295ZM42.6115 49.7295C42.6115 48.7873 40.6359 48.0274 38.1892 48.0274C35.7578 48.0274 33.767 48.7873 33.767 49.7295C33.767 50.6717 35.7426 51.4315 38.1892 51.4315C40.6359 51.4315 42.6115 50.6717 42.6115 49.7295Z" fill="#FFC022"/>
<path d="M37.6119 49.0456L35.0892 49.775V50.2765L37.6727 49.4711C37.931 49.6839 38.2957 49.8358 38.7668 49.9422C38.8124 49.9574 38.8428 49.9574 38.8884 49.9726V50.4285H39.8306V50.079C40.0282 50.0942 40.2257 50.0942 40.3929 50.079V50.4133H41.3351V49.0608H40.3929V49.7143C40.2409 49.7143 40.0433 49.7143 39.8306 49.7143V49.076H38.8884V49.5319C38.6605 49.4407 38.4781 49.3191 38.3413 49.152L37.6119 49.0456Z" fill="#FFC022"/>
<path d="M31.6699 48.4073C31.6699 49.7902 34.6029 50.9148 38.2045 50.9148C41.8213 50.9148 44.7391 49.7902 44.7391 48.4073V47.222H31.6699V48.4073Z" fill="#FF931E"/>
<path d="M37.5812 47.8299V50.9148C37.7788 50.9148 37.9915 50.93 38.2043 50.93V47.8451H37.5812V47.8299Z" fill="#D17918"/>
<path d="M36.32 47.8299V50.8084C36.6543 50.854 37.0039 50.8692 37.3686 50.8996V47.8299H36.32Z" fill="#D17918"/>
<path d="M36.0618 50.778V47.222H31.6699V48.4073C31.6699 49.5015 33.5087 50.4437 36.0618 50.778Z" fill="#D17918"/>
<path d="M40.5295 47.8299V50.7628C40.6055 50.7476 40.6662 50.7476 40.7422 50.7324V47.8451H40.5295V47.8299Z" fill="#D17918"/>
<path d="M39.7241 50.854C39.8001 50.854 39.8609 50.8388 39.9369 50.8388V47.8299H39.7241V50.854Z" fill="#D17918"/>
<path d="M38.6906 47.8299V50.9148C38.797 50.9148 38.9034 50.9148 38.9945 50.8996V47.8299H38.6906Z" fill="#D17918"/>
<path d="M38.2046 49.7295C34.5878 49.7295 31.67 48.6049 31.67 47.222C31.67 45.8391 34.603 44.7146 38.2046 44.7146C41.8214 44.7146 44.7392 45.8391 44.7392 47.222C44.7392 48.6049 41.8062 49.7295 38.2046 49.7295Z" fill="#FF931E"/>
<path opacity="0.4" d="M41.8822 49.2887C41.6998 49.2887 41.5023 49.3039 41.3199 49.3039C37.7031 49.3039 34.7854 48.1794 34.7854 46.7965C34.7854 45.9303 35.9099 45.1705 37.6423 44.7146C34.2991 44.8209 31.67 45.8999 31.67 47.222C31.67 48.6049 34.603 49.7295 38.2046 49.7295C39.5723 49.7295 40.8336 49.5775 41.8822 49.2887Z" fill="url(#paint9_linear_1_142)"/>
<path d="M44.7391 47.298C44.6327 45.9455 41.7453 44.8665 38.2045 44.8665C34.6637 44.8665 31.7763 45.9455 31.6699 47.298C31.7763 48.6505 34.6637 49.7294 38.2045 49.7294C41.7453 49.7294 44.6327 48.6505 44.7391 47.298ZM38.2045 49.4255C35.2715 49.4255 32.8857 48.5137 32.8857 47.374C32.8857 46.2494 35.2715 45.3224 38.2045 45.3224C41.1374 45.3224 43.5233 46.2342 43.5233 47.374C43.5233 48.4985 41.1374 49.4255 38.2045 49.4255Z" fill="#D17918"/>
<path d="M37.6119 46.8725L35.0892 47.6019V48.1034L37.6727 47.3132C37.931 47.5259 38.2957 47.6779 38.7668 47.7843C38.8124 47.7995 38.8428 47.7995 38.8884 47.7995V48.2554H39.8306V47.9059C40.0282 47.9211 40.2257 47.9211 40.3929 47.9059V48.2402H41.3351V46.8877H40.3929V47.5411C40.2409 47.5411 40.0433 47.5411 39.8306 47.5259V46.8877H38.8884V47.3436C38.6605 47.2524 38.4781 47.1308 38.3413 46.9637L37.6119 46.8725Z" fill="#D17918"/>
<path d="M43.5234 47.222C43.5234 48.3466 41.1376 49.2736 38.2046 49.2736C35.2717 49.2736 32.8858 48.3618 32.8858 47.222C32.8858 46.0975 35.2717 45.1705 38.2046 45.1705C41.1376 45.1705 43.5234 46.0975 43.5234 47.222ZM44.7392 47.222C44.7392 45.8391 41.8062 44.7146 38.2046 44.7146C34.5878 44.7146 31.67 45.8391 31.67 47.222C31.67 48.6049 34.603 49.7295 38.2046 49.7295C41.8062 49.7295 44.7392 48.6049 44.7392 47.222Z" fill="#FFC022"/>
<path d="M33.5847 47.222C33.5847 46.2494 35.6514 45.444 38.2044 45.444C40.7575 45.444 42.8242 46.2342 42.8242 47.222C42.8242 48.1946 40.7575 49 38.2044 49C35.6514 49 33.5847 48.1946 33.5847 47.222ZM42.6115 47.222C42.6115 46.2798 40.6359 45.52 38.1892 45.52C35.7578 45.52 33.767 46.2798 33.767 47.222C33.767 48.1642 35.7426 48.924 38.1892 48.924C40.6359 48.9088 42.6115 48.149 42.6115 47.222Z" fill="#FFC022"/>
<path d="M37.6119 46.5381L35.0892 47.2676V47.7691L37.6727 46.9637C37.931 47.1764 38.2957 47.3284 38.7668 47.4347C38.8124 47.4499 38.8428 47.4499 38.8884 47.4651V47.921H39.8306V47.5715C40.0282 47.5867 40.2257 47.5867 40.3929 47.5715V47.9058H41.3351V46.5533H40.3929V47.2068C40.2409 47.2068 40.0433 47.2068 39.8306 47.1916V46.5533H38.8884V47.0092C38.6605 46.9181 38.4781 46.7965 38.3413 46.6293L37.6119 46.5381Z" fill="#FFC022"/>
<path d="M31.6699 45.8847C31.6699 47.2676 34.6029 48.3921 38.2045 48.3921C41.8213 48.3921 44.7391 47.2676 44.7391 45.8847V44.6994H31.6699V45.8847Z" fill="#FF931E"/>
<path d="M37.5812 45.3224V48.4073C37.7788 48.4073 37.9915 48.4225 38.2043 48.4225V45.3376H37.5812V45.3224Z" fill="#D17918"/>
<path d="M36.32 45.3224V48.301C36.6543 48.3466 37.0039 48.3617 37.3686 48.3921V45.3224H36.32Z" fill="#D17918"/>
<path d="M36.0618 48.2706V44.7146H31.6699V45.8999C31.6699 46.9941 33.5087 47.921 36.0618 48.2706Z" fill="#D17918"/>
<path d="M40.5295 45.3224V48.2554C40.6055 48.2402 40.6662 48.2402 40.7422 48.225V45.3376H40.5295V45.3224Z" fill="#D17918"/>
<path d="M39.7241 48.3314C39.8001 48.3314 39.8609 48.3162 39.9369 48.3162V45.3072H39.7241V48.3314Z" fill="#D17918"/>
<path d="M38.6906 45.3224V48.4073C38.797 48.4073 38.9034 48.4073 38.9945 48.3921V45.3224H38.6906Z" fill="#D17918"/>
<path d="M38.2045 47.222C34.5877 47.222 31.6699 46.0975 31.6699 44.7146C31.6699 43.3317 34.6029 42.2071 38.2045 42.2071C41.8213 42.2071 44.7391 43.3317 44.7391 44.7146C44.7391 46.0975 41.8061 47.222 38.2045 47.222Z" fill="#FF931E"/>
<path opacity="0.4" d="M41.8821 46.7813C41.6997 46.7813 41.5022 46.7965 41.3198 46.7965C37.703 46.7965 34.7852 45.6719 34.7852 44.289C34.7852 43.4228 35.9098 42.663 37.6422 42.2071C34.2989 42.3135 31.6699 43.3924 31.6699 44.7146C31.6699 46.0975 34.6029 47.222 38.2045 47.222C39.5722 47.222 40.8335 47.0548 41.8821 46.7813Z" fill="url(#paint10_linear_1_142)"/>
<path d="M44.7391 44.7753C44.6327 43.4228 41.7453 42.3439 38.2045 42.3439C34.6637 42.3439 31.7763 43.4228 31.6699 44.7753C31.7763 46.1278 34.6637 47.2068 38.2045 47.2068C41.7453 47.222 44.6327 46.1278 44.7391 44.7753ZM38.2045 46.9029C35.2715 46.9029 32.8857 45.9911 32.8857 44.8513C32.8857 43.7268 35.2715 42.7998 38.2045 42.7998C41.1374 42.7998 43.5233 43.7116 43.5233 44.8513C43.5233 45.9911 41.1374 46.9029 38.2045 46.9029Z" fill="#D17918"/>
<path d="M37.6119 44.3498L35.0892 45.0793V45.5808L37.6727 44.7905C37.931 45.0033 38.2957 45.1552 38.7668 45.2616C38.8124 45.2768 38.8428 45.2768 38.8884 45.2768V45.7327H39.8306V45.3832C40.0282 45.3984 40.2257 45.3984 40.3929 45.3832V45.7175H41.3351V44.365H40.3929V45.0185C40.2409 45.0185 40.0433 45.0185 39.8306 45.0185V44.3802H38.8884V44.8361C38.6605 44.7449 38.4781 44.6234 38.3413 44.4562L37.6119 44.3498Z" fill="#D17918"/>
<path d="M43.5234 44.6994C43.5234 45.8239 41.1376 46.7509 38.2046 46.7509C35.2717 46.7509 32.8858 45.8391 32.8858 44.6994C32.8858 43.5748 35.2717 42.6478 38.2046 42.6478C41.1376 42.663 43.5234 43.5748 43.5234 44.6994ZM44.7392 44.6994C44.7392 43.3165 41.8062 42.1919 38.2046 42.1919C34.5878 42.1919 31.67 43.3165 31.67 44.6994C31.67 46.0823 34.603 47.2068 38.2046 47.2068C41.8062 47.222 44.7392 46.0975 44.7392 44.6994Z" fill="#FFC022"/>
<path d="M33.5847 44.6994C33.5847 43.7268 35.6514 42.9213 38.2044 42.9213C40.7575 42.9213 42.8242 43.7116 42.8242 44.6994C42.8242 45.6719 40.7575 46.4774 38.2044 46.4774C35.6514 46.4774 33.5847 45.6871 33.5847 44.6994ZM42.6115 44.6994C42.6115 43.7572 40.6359 42.9973 38.1892 42.9973C35.7578 42.9973 33.767 43.7572 33.767 44.6994C33.767 45.6415 35.7426 46.4014 38.1892 46.4014C40.6359 46.4014 42.6115 45.6415 42.6115 44.6994Z" fill="#FFC022"/>
<path d="M37.6119 44.0155L35.0892 44.7449V45.2464L37.6727 44.441C37.931 44.6538 38.2957 44.8057 38.7668 44.9121C38.8124 44.9273 38.8428 44.9273 38.8884 44.9425V45.3984H39.8306V45.0489C40.0282 45.0641 40.2257 45.0641 40.3929 45.0489V45.3832H41.3351V44.0307H40.3929V44.6842C40.2409 44.6842 40.0433 44.6842 39.8306 44.669V44.0307H38.8884V44.4866C38.6605 44.3954 38.4781 44.2738 38.3413 44.1067L37.6119 44.0155Z" fill="#FFC022"/>
<path d="M31.6699 43.3772C31.6699 44.7601 34.6029 45.8847 38.2045 45.8847C41.8213 45.8847 44.7391 44.7601 44.7391 43.3772V42.1919H31.6699V43.3772Z" fill="#FF931E"/>
<path d="M37.5812 42.7998V45.8847C37.7788 45.8847 37.9915 45.8999 38.2043 45.8999V42.815H37.5812V42.7998Z" fill="#D17918"/>
<path d="M36.32 42.7998V45.7783C36.6543 45.8239 37.0039 45.8391 37.3686 45.8695V42.7998H36.32Z" fill="#D17918"/>
<path d="M36.0618 45.7479V42.1919H31.6699V43.3772C31.6699 44.4714 33.5087 45.4136 36.0618 45.7479Z" fill="#D17918"/>
<path d="M40.5295 42.7998V45.7327C40.6055 45.7175 40.6662 45.7175 40.7422 45.7023V42.815H40.5295V42.7998Z" fill="#D17918"/>
<path d="M39.7241 45.8239C39.8001 45.8239 39.8609 45.8087 39.9369 45.8087V42.7998H39.7241V45.8239Z" fill="#D17918"/>
<path d="M38.6906 42.7998V45.8847C38.797 45.8847 38.9034 45.8847 38.9945 45.8695V42.7998H38.6906Z" fill="#D17918"/>
<path d="M38.2046 44.6993C34.5878 44.6993 31.67 43.5748 31.67 42.1919C31.67 40.809 34.603 39.6844 38.2046 39.6844C41.8214 39.6844 44.7392 40.809 44.7392 42.1919C44.7392 43.5748 41.8062 44.6993 38.2046 44.6993Z" fill="#FF931E"/>
<path opacity="0.4" d="M41.8821 44.2738C41.6997 44.2738 41.5022 44.289 41.3198 44.289C37.703 44.289 34.7852 43.1645 34.7852 41.7816C34.7852 40.9154 35.9098 40.1555 37.6422 39.6996C34.2989 39.806 31.6699 40.885 31.6699 42.2071C31.6699 43.59 34.6029 44.7145 38.2045 44.7145C39.5722 44.6993 40.8335 44.5474 41.8821 44.2738Z" fill="url(#paint11_linear_1_142)"/>
<path d="M44.7391 42.2679C44.6327 40.9154 41.7453 39.8364 38.2045 39.8364C34.6637 39.8364 31.7763 40.9154 31.6699 42.2679C31.7763 43.6204 34.6637 44.6993 38.2045 44.6993C41.7453 44.6993 44.6327 43.6204 44.7391 42.2679ZM38.2045 44.3954C35.2715 44.3954 32.8857 43.4836 32.8857 42.3439C32.8857 41.2193 35.2715 40.2923 38.2045 40.2923C41.1374 40.2923 43.5233 41.2041 43.5233 42.3439C43.5233 43.4684 41.1374 44.3954 38.2045 44.3954Z" fill="#D17918"/>
<path d="M37.6119 41.8424L35.0892 42.5718V43.0733L37.6727 42.2831C37.931 42.4958 38.2957 42.6478 38.7668 42.7542C38.8124 42.7694 38.8428 42.7694 38.8884 42.7846V43.2405H39.8306V42.891C40.0282 42.9061 40.2257 42.9061 40.3929 42.891V43.2253H41.3351V41.8728H40.3929V42.5262C40.2409 42.5262 40.0433 42.5262 39.8306 42.5262V41.888H38.8884V42.3439C38.6605 42.2527 38.4781 42.1311 38.3413 41.964L37.6119 41.8424Z" fill="#D17918"/>
<path d="M43.5234 42.1919C43.5234 43.3165 41.1376 44.2434 38.2046 44.2434C35.2717 44.2434 32.8858 43.3316 32.8858 42.1919C32.8858 41.0673 35.2717 40.1403 38.2046 40.1403C41.1376 40.1403 43.5234 41.0673 43.5234 42.1919ZM44.7392 42.1919C44.7392 40.809 41.8062 39.6844 38.2046 39.6844C34.5878 39.6844 31.67 40.809 31.67 42.1919C31.67 43.5748 34.603 44.6993 38.2046 44.6993C41.8062 44.6993 44.7392 43.5748 44.7392 42.1919Z" fill="#FFC022"/>
<path d="M33.5847 42.1919C33.5847 41.2193 35.6514 40.4139 38.2044 40.4139C40.7575 40.4139 42.8242 41.2041 42.8242 42.1919C42.8242 43.1645 40.7575 43.9699 38.2044 43.9699C35.6514 43.9699 33.5847 43.1645 33.5847 42.1919ZM42.6115 42.1919C42.6115 41.2497 40.6359 40.4899 38.1892 40.4899C35.7578 40.4899 33.767 41.2497 33.767 42.1919C33.767 43.1341 35.7426 43.8939 38.1892 43.8939C40.6359 43.8939 42.6115 43.1341 42.6115 42.1919Z" fill="#FFC022"/>
<path d="M37.6119 41.508L35.0892 42.2375V42.739L37.6727 41.9335C37.931 42.1463 38.2957 42.2983 38.7668 42.4046C38.8124 42.4198 38.8428 42.4198 38.8884 42.435V42.8909H39.8306V42.5414C40.0282 42.5566 40.2257 42.5566 40.3929 42.5414V42.8757H41.3351V41.5232H40.3929V42.1767C40.2409 42.1767 40.0433 42.1767 39.8306 42.1767V41.5384H38.8884V41.9943C38.6605 41.9032 38.4781 41.7816 38.3413 41.6144L37.6119 41.508Z" fill="#FFC022"/>
<path d="M31.6699 40.8698C31.6699 42.2527 34.6029 43.3772 38.2045 43.3772C41.8213 43.3772 44.7391 42.2527 44.7391 40.8698V39.6844H31.6699V40.8698Z" fill="#FF931E"/>
<path d="M37.5812 40.2923V43.3772C37.7788 43.3772 37.9915 43.3924 38.2043 43.3924V40.3075H37.5812V40.2923Z" fill="#D17918"/>
<path d="M36.32 40.2923V43.2709C36.6543 43.3165 37.0039 43.3316 37.3686 43.362V40.2923H36.32Z" fill="#D17918"/>
<path d="M36.0618 43.2405V39.6844H31.6699V40.8698C31.6699 41.9639 33.5087 42.8909 36.0618 43.2405Z" fill="#D17918"/>
<path d="M40.5295 40.2923V43.2253C40.6055 43.2101 40.6662 43.2101 40.7422 43.1949V40.3075H40.5295V40.2923Z" fill="#D17918"/>
<path d="M39.7241 43.3164C39.8001 43.3164 39.8609 43.3013 39.9369 43.3013V40.2923H39.7241V43.3164Z" fill="#D17918"/>
<path d="M38.6906 40.2923V43.3772C38.797 43.3772 38.9034 43.3772 38.9945 43.362V40.2923H38.6906Z" fill="#D17918"/>
<path d="M38.2045 42.1919C34.5877 42.1919 31.6699 41.0673 31.6699 39.6845C31.6699 38.3016 34.6029 37.177 38.2045 37.177C41.8213 37.177 44.7391 38.3016 44.7391 39.6845C44.7391 41.0673 41.8061 42.1919 38.2045 42.1919Z" fill="#FF931E"/>
<path opacity="0.4" d="M41.8821 41.7512C41.6997 41.7512 41.5022 41.7664 41.3198 41.7664C37.703 41.7664 34.7852 40.6418 34.7852 39.2589C34.7852 38.3927 35.9098 37.6329 37.6422 37.177C34.2989 37.2834 31.6699 38.3623 31.6699 39.6845C31.6699 41.0673 34.6029 42.1919 38.2045 42.1919C39.5722 42.1919 40.8335 42.0247 41.8821 41.7512Z" fill="url(#paint12_linear_1_142)"/>
<path d="M44.7391 39.7604C44.6327 38.4079 41.7453 37.329 38.2045 37.329C34.6637 37.329 31.7763 38.4079 31.6699 39.7604C31.7763 41.1129 34.6637 42.1919 38.2045 42.1919C41.7453 42.1919 44.6327 41.1129 44.7391 39.7604ZM38.2045 41.8728C35.2715 41.8728 32.8857 40.961 32.8857 39.8212C32.8857 38.6967 35.2715 37.7697 38.2045 37.7697C41.1374 37.7697 43.5233 38.6815 43.5233 39.8212C43.5233 40.961 41.1374 41.8728 38.2045 41.8728Z" fill="#D17918"/>
<path d="M37.6119 39.3349L35.0892 40.0644V40.5659L37.6727 39.7756C37.931 39.9884 38.2957 40.1404 38.7668 40.2467C38.8124 40.2619 38.8428 40.2619 38.8884 40.2619V40.7178H39.8306V40.3531C40.0282 40.3683 40.2257 40.3683 40.3929 40.3531V40.6874H41.3351V39.3349H40.3929V39.9884C40.2409 39.9884 40.0433 39.9884 39.8306 39.9732V39.3349H38.8884V39.7908C38.6605 39.6997 38.4781 39.5781 38.3413 39.4109L37.6119 39.3349Z" fill="#D17918"/>
<path d="M43.5234 39.6693C43.5234 40.7938 41.1376 41.7208 38.2046 41.7208C35.2717 41.7208 32.8858 40.809 32.8858 39.6693C32.8858 38.5447 35.2717 37.6177 38.2046 37.6177C41.1376 37.6329 43.5234 38.5447 43.5234 39.6693ZM44.7392 39.6693C44.7392 38.2864 41.8062 37.1618 38.2046 37.1618C34.5878 37.1618 31.67 38.2864 31.67 39.6693C31.67 41.0522 34.603 42.1767 38.2046 42.1767C41.8062 42.1919 44.7392 41.0673 44.7392 39.6693Z" fill="#FFC022"/>
<path d="M33.5847 39.6692C33.5847 38.6967 35.6514 37.8912 38.2044 37.8912C40.7575 37.8912 42.8242 38.6815 42.8242 39.6692C42.8242 40.6418 40.7575 41.4473 38.2044 41.4473C35.6514 41.4473 33.5847 40.657 33.5847 39.6692ZM42.6115 39.6692C42.6115 38.7271 40.6359 37.9672 38.1892 37.9672C35.7578 37.9672 33.767 38.7271 33.767 39.6692C33.767 40.6114 35.7426 41.3713 38.1892 41.3713C40.6359 41.3713 42.6115 40.6114 42.6115 39.6692Z" fill="#FFC022"/>
<path d="M37.6119 38.9854L35.0892 39.7148V40.2163L37.6727 39.4109C37.931 39.6237 38.2957 39.7756 38.7668 39.882C38.8124 39.8972 38.8428 39.8972 38.8884 39.9124V40.3683H39.8306V40.0188C40.0282 40.034 40.2257 40.034 40.3929 40.0188V40.3531H41.3351V39.0006H40.3929V39.654C40.2409 39.654 40.0433 39.654 39.8306 39.654V39.0158H38.8884V39.4717C38.6605 39.3805 38.4781 39.2589 38.3413 39.0918L37.6119 38.9854Z" fill="#FFC022"/>
<path opacity="0.6" d="M24.6339 40.2619C23.6613 40.0188 22.4456 41.3105 21.5186 43.3925C21.5186 43.3925 21.5186 43.3925 21.5186 43.4076C21.5338 43.438 21.5338 43.4684 21.549 43.4836C21.549 43.4988 21.5642 43.514 21.5642 43.514C21.5794 43.5444 21.5946 43.59 21.6098 43.6204C21.6098 43.6204 21.6098 43.6356 21.625 43.6356C21.6402 43.666 21.6554 43.6964 21.6858 43.7268C21.701 43.742 21.701 43.7572 21.7162 43.7724C21.7162 43.7724 21.7162 43.7724 21.7162 43.7876C21.701 43.8028 21.6858 43.818 21.6858 43.8332C21.6706 43.8483 21.6554 43.8787 21.6402 43.8939C21.625 43.9091 21.625 43.9243 21.6098 43.9547C21.5946 43.9699 21.5946 44.0003 21.5794 44.0155C21.5642 44.0307 21.5642 44.0459 21.549 44.0611C21.5338 44.0915 21.5338 44.1067 21.5186 44.1371C21.5186 44.1523 21.5034 44.1675 21.5034 44.1827C21.5034 44.2131 21.4882 44.2435 21.4882 44.2587C21.4882 44.2739 21.4882 44.2891 21.473 44.3043C21.473 44.3498 21.4578 44.3954 21.4578 44.4258V45.6112C21.4578 45.6568 21.4578 45.6871 21.473 45.7327C21.473 45.7479 21.473 45.7631 21.473 45.7631C21.473 45.7935 21.4882 45.8239 21.4882 45.8391C21.4882 45.8543 21.4882 45.8695 21.5034 45.8847C21.5186 45.9151 21.5186 45.9455 21.5338 45.9607C21.5338 45.9759 21.549 45.9911 21.549 45.9911C21.5642 46.0215 21.5794 46.0671 21.5946 46.0975L21.6098 46.1127C21.625 46.143 21.6402 46.1734 21.6706 46.2038C21.6858 46.219 21.6858 46.2342 21.701 46.2494C21.701 46.2494 21.701 46.2494 21.701 46.2646C21.6858 46.2798 21.6706 46.295 21.6706 46.3102C21.6554 46.3254 21.6402 46.3558 21.625 46.371C21.6098 46.3862 21.6098 46.4014 21.5946 46.4166C21.5794 46.447 21.5794 46.4622 21.5642 46.4926C21.549 46.5078 21.549 46.523 21.549 46.5382C21.5338 46.5686 21.5338 46.5838 21.5186 46.6141C21.5186 46.6293 21.5034 46.6445 21.5034 46.6597C21.5034 46.6901 21.4882 46.7205 21.4882 46.7357C21.4882 46.7509 21.4882 46.7661 21.473 46.7813C21.473 46.8269 21.4578 46.8725 21.4578 46.9029V48.0882C21.4578 48.1338 21.4578 48.1642 21.473 48.2098C21.473 48.225 21.473 48.2402 21.473 48.2402C21.473 48.2706 21.4882 48.301 21.4882 48.3162C21.4882 48.3314 21.4882 48.3466 21.5034 48.3618C21.5186 48.3922 21.5186 48.4225 21.5338 48.4377C21.5338 48.4529 21.549 48.4681 21.549 48.4681C21.5642 48.4985 21.5794 48.5441 21.5946 48.5745C21.5946 48.5745 21.5946 48.5897 21.6098 48.5897C21.625 48.6201 21.6402 48.6505 21.6706 48.6809C21.6858 48.6961 21.6858 48.7113 21.701 48.7265C21.7162 48.7569 21.7314 48.7721 21.7466 48.8025C21.7618 48.8177 21.7618 48.8329 21.777 48.8481C21.7921 48.8784 21.8225 48.8936 21.8377 48.924C21.8529 48.9392 21.8529 48.9544 21.8681 48.9544C21.8985 48.9848 21.9289 49.0152 21.9745 49.0608C21.9897 49.076 22.0049 49.0912 22.0201 49.0912C22.0505 49.1064 22.0657 49.1368 22.0961 49.152C22.1113 49.1672 22.1265 49.1824 22.1569 49.1976C22.1873 49.2128 22.2025 49.228 22.2329 49.2584C22.248 49.2736 22.2784 49.2888 22.2936 49.304C22.324 49.3191 22.3392 49.3343 22.3696 49.3495C22.3848 49.3647 22.4152 49.3799 22.4304 49.3951C22.476 49.4255 22.5216 49.4559 22.5672 49.4711C22.5976 49.4863 22.628 49.5015 22.6584 49.5167C22.6888 49.5319 22.704 49.5471 22.7343 49.5623C22.7647 49.5775 22.7951 49.5927 22.8407 49.6079C22.8559 49.6231 22.8863 49.6231 22.9015 49.6383C22.9319 49.6535 22.9775 49.6687 23.0079 49.6839C23.0231 49.6991 23.0383 49.6991 23.0687 49.7143C23.2054 49.7751 23.3574 49.8358 23.5094 49.8966C23.5246 49.8966 23.5398 49.9118 23.555 49.9118C23.6006 49.927 23.6613 49.9422 23.7069 49.9574C23.7221 49.9574 23.7373 49.9726 23.7525 49.9726C23.9653 50.0486 24.1932 50.1094 24.4364 50.1702C24.8619 49.304 25.2418 48.2706 25.5153 47.1308C26.3815 43.7116 25.9864 40.5963 24.6339 40.2619Z" fill="#CCCCCC"/>
<path d="M19.3913 51.6898C20.683 52.2065 22.8105 49.8966 24.1326 46.5381C25.4699 43.1797 25.5003 40.0492 24.2086 39.5325L23.0993 39.0918L18.2819 51.2491L19.3913 51.6898Z" fill="#FF931E"/>
<path d="M21.0478 45.9759L23.9048 47.1156C23.9807 46.9333 24.0719 46.7357 24.1479 46.5382L21.2757 45.3984L21.0478 45.9759Z" fill="#D17918"/>
<path d="M20.5768 47.146L23.3578 48.2402C23.525 47.9362 23.677 47.6323 23.8289 47.298L20.972 46.1734L20.5768 47.146Z" fill="#D17918"/>
<path d="M23.221 48.4833L19.9081 47.1764L18.2821 51.2643L19.3763 51.705C20.4248 52.1001 21.9597 50.7324 23.221 48.4833Z" fill="#D17918"/>
<path d="M22.127 43.2253L24.8472 44.3042C24.8624 44.2283 24.8775 44.1675 24.8927 44.0915L22.2029 43.0277L22.127 43.2253Z" fill="#D17918"/>
<path d="M24.6343 45.1097C24.6495 45.0337 24.6799 44.9729 24.6951 44.8969L21.8989 43.7876L21.8229 43.9851L24.6343 45.1097Z" fill="#D17918"/>
<path d="M21.4431 44.9425L24.3152 46.0823C24.3456 45.9911 24.3912 45.8847 24.4216 45.7935L21.5646 44.669L21.4431 44.9425Z" fill="#D17918"/>
<path d="M23.0383 46.0974C21.701 49.4559 19.5886 51.7658 18.2969 51.2491C17.0052 50.7324 17.0356 47.6019 18.3729 44.2435C19.7102 40.885 21.8226 38.5751 23.1143 39.0918C24.406 39.6085 24.3756 42.739 23.0383 46.0974Z" fill="#FF931E"/>
<path opacity="0.4" d="M23.996 42.511C23.9352 42.6782 23.8744 42.8606 23.7984 43.0429C22.4611 46.4014 20.3488 48.7113 19.0571 48.1946C18.2516 47.8755 17.9629 46.5381 18.1757 44.7753C17.0511 47.921 17.0815 50.7628 18.2972 51.2491C19.5889 51.7658 21.7165 49.4559 23.0386 46.0974C23.5401 44.8361 23.8592 43.59 23.996 42.511Z" fill="url(#paint13_linear_1_142)"/>
<path d="M23.1753 39.1222C21.8835 38.7271 19.8016 41.0066 18.5099 44.3042C17.203 47.6019 17.1574 50.6716 18.3731 51.2795C19.6648 51.6746 21.7316 49.3951 23.0385 46.0975C24.3454 42.7998 24.391 39.73 23.1753 39.1222ZM22.7497 45.9911C21.6708 48.7113 19.9384 50.5957 18.8898 50.1854C17.8412 49.775 17.8716 47.2068 18.9506 44.4866C20.0295 41.7664 21.762 39.882 22.8105 40.2923C23.8591 40.7026 23.8287 43.2557 22.7497 45.9911Z" fill="#D17918"/>
<path d="M20.1664 45.596L19.908 48.2098L20.3791 48.3921L20.5919 45.6871C20.8806 45.52 21.1541 45.2464 21.4277 44.8361C21.4429 44.8057 21.4733 44.7753 21.4885 44.7297L21.914 44.8969L22.2635 44.0307L21.9444 43.9091C22.0356 43.7268 22.0963 43.5444 22.1571 43.3924L22.4763 43.514L22.8258 42.6478L21.5645 42.1463L21.2149 43.0125L21.8228 43.2557C21.7772 43.4076 21.7012 43.59 21.61 43.7724L21.0174 43.5292L20.6679 44.3954L21.0934 44.5626C20.9262 44.745 20.7438 44.8665 20.5311 44.9273L20.1664 45.596Z" fill="#D17918"/>
<path d="M22.6584 40.2315C23.7069 40.6418 23.6765 43.2101 22.5976 45.9303C21.5186 48.6657 19.7862 50.5349 18.7376 50.1246C17.6891 49.7143 17.7195 47.146 18.7984 44.4258C19.8774 41.6904 21.6098 39.806 22.6584 40.2315ZM23.1143 39.0918C21.8226 38.5751 19.695 40.885 18.3729 44.2435C17.0356 47.6019 17.0052 50.7324 18.2969 51.2491C19.5886 51.7658 21.7162 49.4559 23.0383 46.0974C24.3756 42.739 24.406 39.6085 23.1143 39.0918Z" fill="#FFC022"/>
<path d="M18.9963 49.4711C18.0845 49.1064 18.1149 46.8877 19.0419 44.517C19.9841 42.1463 21.4885 40.5203 22.4003 40.885C23.3121 41.2497 23.2817 43.4684 22.3547 45.8391C21.4125 48.1946 19.9081 49.8206 18.9963 49.4711ZM22.3243 41.0674C21.4581 40.7178 20.0144 42.2831 19.1178 44.5474C18.2212 46.8117 18.206 48.9392 19.0723 49.2736C19.9385 49.6231 21.3821 48.0578 22.2788 45.7935C23.1754 43.5292 23.2057 41.4169 22.3243 41.0674Z" fill="#FFC022"/>
<path d="M19.8471 45.4744L19.5888 48.0882L20.0599 48.2706L20.2727 45.5656C20.5614 45.3984 20.8349 45.1249 21.1085 44.7145C21.1237 44.6842 21.1541 44.6538 21.1693 44.6082L21.5948 44.7753L21.9443 43.9091L21.6252 43.7875C21.7011 43.6052 21.7771 43.4228 21.8379 43.2709L22.157 43.3924L22.5066 42.5262L21.2452 42.0247L20.8957 42.8909L21.5036 43.1341C21.458 43.2861 21.382 43.4684 21.2908 43.6508L20.6982 43.4076L20.3486 44.2738L20.7741 44.441C20.607 44.6234 20.4246 44.7449 20.2119 44.8057L19.8471 45.4744Z" fill="#FFC022"/>
<path opacity="0.6" d="M40.7425 53.2399C43.098 52.86 44.7392 51.9634 44.7392 50.93V49.7447C44.7392 49.5167 44.6632 49.2888 44.5112 49.076C44.6632 48.8632 44.7392 48.6353 44.7392 48.4073V47.222C44.7392 46.9941 44.6632 46.7661 44.5112 46.5534C44.6632 46.3406 44.7392 46.1127 44.7392 45.8847V44.6994C44.7392 44.4714 44.6632 44.2435 44.5112 44.0307C44.6632 43.818 44.7392 43.59 44.7392 43.3621V43.3469C43.4019 42.8758 40.8944 44.8969 38.9797 48.0578C37.8095 50.003 37.1105 51.9482 36.9889 53.3767C37.1105 53.3919 37.232 53.3919 37.3536 53.3919C37.6272 53.4071 37.9007 53.4071 38.1894 53.4071C38.463 53.4071 38.7213 53.4071 38.9797 53.3919C39.5419 53.3615 40.089 53.3159 40.6057 53.2399C40.6665 53.2551 40.6969 53.2399 40.7425 53.2399Z" fill="#CCCCCC"/>
<path d="M48.2951 55.5954C47.0033 56.1121 44.8758 53.8022 43.5537 50.4437C42.2164 47.0852 42.186 43.9547 43.4777 43.438L44.5871 42.9973L49.4044 55.1547L48.2951 55.5954Z" fill="#FF931E"/>
<path d="M46.654 49.8814L43.797 51.0212C43.7211 50.8388 43.6299 50.6413 43.5539 50.4437L46.4261 49.304L46.654 49.8814Z" fill="#D17918"/>
<path d="M47.1251 51.0516L44.3441 52.1457C44.1769 51.8418 44.025 51.5379 43.873 51.2035L46.73 50.079L47.1251 51.0516Z" fill="#D17918"/>
<path d="M44.4656 52.3737L47.7784 51.0668L49.4045 55.1547L48.3103 55.5954C47.277 55.9905 45.7269 54.638 44.4656 52.3737Z" fill="#D17918"/>
<path d="M45.5596 47.1308L42.8394 48.2098C42.8242 48.1338 42.809 48.073 42.7938 47.997L45.4836 46.9333L45.5596 47.1308Z" fill="#D17918"/>
<path d="M43.0524 49C43.0372 48.924 43.0068 48.8633 42.9916 48.7873L45.7878 47.6779L45.8638 47.8755L43.0524 49Z" fill="#D17918"/>
<path d="M46.2437 48.848L43.3715 49.9878C43.3411 49.8966 43.2955 49.7902 43.2651 49.6991L46.1373 48.5593L46.2437 48.848Z" fill="#D17918"/>
<path d="M44.6478 50.003C45.9851 53.3615 48.0975 55.6714 49.3892 55.1547C50.6809 54.638 50.6505 51.5075 49.3132 48.149C47.9759 44.7905 45.8636 42.4806 44.5719 42.9973C43.2953 43.514 43.3257 46.6445 44.6478 50.003Z" fill="#FF931E"/>
<path opacity="0.4" d="M43.7056 46.4166C43.7664 46.5837 43.8272 46.7661 43.9032 46.9485C45.2405 50.3069 47.3528 52.6168 48.6445 52.1001C49.45 51.781 49.7387 50.4437 49.5259 48.6809C50.6505 51.8266 50.6201 54.6684 49.4044 55.1547C48.1127 55.6713 45.9851 53.3615 44.663 50.003C44.1463 48.7265 43.8272 47.4955 43.7056 46.4166Z" fill="url(#paint14_linear_1_142)"/>
<path d="M44.6478 50.003C45.9547 53.3007 48.0214 55.5802 49.3131 55.1851C50.5289 54.5924 50.4833 51.5075 49.1764 48.2098C47.8695 44.9121 45.8027 42.6326 44.511 43.0277C43.2953 43.6356 43.3561 46.7053 44.6478 50.003ZM44.8909 44.1827C45.9395 43.7724 47.6719 45.6416 48.7509 48.377C49.8298 51.0972 49.8602 53.6654 48.8117 54.0757C47.7631 54.486 46.0307 52.6168 44.9517 49.8814C43.8575 47.1612 43.8423 44.6082 44.8909 44.1827Z" fill="#D17918"/>
<path d="M47.5353 49.5015L47.7936 52.1153L47.3225 52.2977L47.1098 49.5927C46.821 49.4255 46.5475 49.152 46.2739 48.7417C46.2587 48.7113 46.2284 48.6809 46.2132 48.6353L45.7877 48.8025L45.4381 47.9363L45.7573 47.8147C45.6661 47.6323 45.6053 47.45 45.5445 47.298L45.2254 47.4196L44.8759 46.5534L46.1372 46.0519L46.4867 46.9181L45.8788 47.1612C45.9244 47.3132 46.0004 47.4955 46.0916 47.6779L46.6843 47.4348L47.0338 48.301L46.6083 48.4681C46.7754 48.6505 46.9578 48.7721 47.1705 48.8329L47.5353 49.5015Z" fill="#D17918"/>
<path d="M45.0278 44.1219C46.0764 43.7116 47.8088 45.5808 48.8877 48.3162C49.9667 51.0364 49.9971 53.6046 48.9485 54.0149C47.9 54.4252 46.1675 52.556 45.0886 49.8206C44.0096 47.1004 43.9792 44.5474 45.0278 44.1219ZM44.5871 42.9973C43.2954 43.514 43.3258 46.6445 44.6631 50.003C46.0004 53.3615 48.1127 55.6714 49.4044 55.1547C50.6962 54.638 50.6658 51.5075 49.3285 48.149C48.0063 44.7905 45.8788 42.4806 44.5871 42.9973Z" fill="#FFC022"/>
<path d="M45.3469 49.7295C44.4047 47.3588 44.3895 45.1401 45.3013 44.7753C46.2131 44.4106 47.7176 46.0519 48.6598 48.4073C49.602 50.778 49.6172 52.9967 48.7054 53.3615C47.7784 53.7262 46.2739 52.1001 45.3469 49.7295ZM45.4077 49.6991C46.3043 51.9634 47.748 53.5286 48.6142 53.1791C49.4804 52.8296 49.4652 50.7172 48.5686 48.4529C47.672 46.1886 46.2283 44.6234 45.3621 44.9729C44.4959 45.3224 44.5111 47.4348 45.4077 49.6991Z" fill="#FFC022"/>
<path d="M47.8543 49.3799L48.1126 51.9938L47.6415 52.1761L47.4288 49.4711C47.1401 49.304 46.8665 49.0304 46.593 48.6201C46.5778 48.5897 46.5474 48.5593 46.5322 48.5137L46.1067 48.6809L45.7572 47.8147L46.0763 47.6931C46.0003 47.5107 45.9243 47.3284 45.8635 47.1764L45.5444 47.298L45.1949 46.4318L46.4562 45.9303L46.8057 46.7965L46.1979 47.0397C46.2435 47.1916 46.3194 47.374 46.4106 47.5563L47.0033 47.3132L47.3528 48.1794L46.9273 48.3466C47.0945 48.5289 47.2768 48.6505 47.4896 48.7113L47.8543 49.3799Z" fill="#FFC022"/>
<path d="M24.0869 41.8424L23.8134 41.1737L23.5551 41.8424L22.8712 42.1159L23.5551 42.3743L23.8134 43.0581L24.0869 42.3743L24.7556 42.1159L24.0869 41.8424Z" fill="white"/>
<path d="M43.2651 41.1281L42.9916 40.4595L42.7332 41.1281L42.0494 41.4017L42.7332 41.66L42.9916 42.3439L43.2651 41.66L43.9338 41.4017L43.2651 41.1281Z" fill="white"/>
<path d="M49.5564 33.5906L49.2829 32.9219L49.0245 33.5906L48.3407 33.8641L49.0245 34.1225L49.2829 34.8063L49.5564 34.1225L50.2251 33.8641L49.5564 33.5906Z" fill="white"/>
<path d="M33.448 46.0367L33.1744 45.3528L32.9161 46.0367L32.2322 46.295L32.9161 46.5685L33.1744 47.2372L33.448 46.5685L34.1166 46.295L33.448 46.0367Z" fill="white"/>
<path d="M23.7218 13.4854C23.7218 13.4854 20.105 16.1296 18.9653 18.1356C18.9653 18.1356 23.7978 14.5492 26.3812 13.4854H23.7218Z" fill="#DAB873"/>
<path d="M24.8161 13.4854C24.8161 13.4854 27.5971 14.9595 28.9648 18.1356C28.9648 18.1356 28.7824 15.4458 27.3387 13.4854H24.8161Z" fill="#DAB873"/>
<path d="M30.3477 20.1264C30.3477 20.1264 32.7944 24.7158 34.1165 29.7307C34.1165 29.7155 34.4052 24.0319 30.3477 20.1264Z" fill="#DAB873"/>
<path d="M33.5845 20.7038C33.5845 20.7038 36.0312 25.2932 37.3533 30.3081C37.3533 30.3081 37.642 24.6246 33.5845 20.7038Z" fill="#E8C47B"/>
<path d="M29.7397 22.4211C29.7397 22.4211 33.8428 21.7524 37.5812 22.7098C37.5812 22.7098 33.8428 20.7646 29.7397 22.4211Z" fill="#E8C47B"/>
<path d="M30.6363 24.6246C30.6363 24.6246 34.7394 23.9559 38.4778 24.9133C38.4778 24.9285 34.7394 22.9833 30.6363 24.6246Z" fill="#E8C47B"/>
<path d="M30.6362 24.6246C30.6362 24.6246 32.0191 24.3966 33.9035 24.3966C33.8427 24.2599 33.7819 24.1079 33.7212 23.9711C32.7638 24.0167 31.7152 24.1991 30.6362 24.6246Z" fill="#DAB873"/>
<path d="M32.8854 22.1931C32.8094 22.0563 32.7486 21.9196 32.6726 21.7676C31.7608 21.8132 30.7579 22.0108 29.7397 22.4211C29.7397 22.4211 31.0618 22.2083 32.8854 22.1931Z" fill="#DAB873"/>
<path d="M19.5731 2.28548L24.816 12.0873V1.63202C24.7096 1.67761 24.6184 1.708 24.512 1.75359C24.4968 1.75359 24.4816 1.76879 24.4513 1.76879C24.3449 1.81438 24.2537 1.84477 24.1473 1.89036H24.1321C24.0257 1.93595 23.9194 1.96635 23.813 2.01194C23.7978 2.02713 23.7674 2.02713 23.7522 2.02713C23.6762 2.05753 23.585 2.08792 23.5091 2.11831C23.4787 2.13351 23.4483 2.13351 23.4179 2.14871C23.3267 2.1791 23.2203 2.20949 23.1291 2.23989C23.1139 2.23989 23.1139 2.23989 23.0987 2.23989C22.9924 2.27028 22.9012 2.30067 22.7948 2.31587C22.7644 2.31587 22.734 2.33107 22.7188 2.33107C22.6428 2.34626 22.5669 2.36146 22.4909 2.37666C22.4605 2.37666 22.4301 2.39185 22.3997 2.39185C22.2933 2.40705 22.2021 2.42225 22.0958 2.43744C21.2448 2.54382 20.3937 2.45264 19.5731 2.28548Z" fill="#DAB873"/>
<path d="M18.2054 1.95113C18.099 1.92074 17.9775 1.89035 17.8407 1.84476L22.1869 8.5009L19.0108 2.16389C18.7373 2.0879 18.4638 2.02712 18.2054 1.95113Z" fill="#DAB873"/>
<path d="M41.4868 1.6928C42.2922 1.06974 42.4594 0.173136 41.0157 0.021169C38.4779 -0.237174 36.8062 1.95115 34.2836 2.11831L28.4937 13.4702H30.7428L41.4868 1.6928Z" fill="#DAB873"/>
<path d="M29.1927 10.674L33.4781 2.10311C32.5967 2.01193 32.0193 1.60162 31.457 1.19131L29.1927 10.674Z" fill="#DAB873"/>
<path d="M22.3845 37.8305C17.7039 37.8305 13.8896 34.1073 13.8896 29.5331C13.8896 24.9589 17.7039 21.2357 22.3845 21.2357C27.0651 21.2357 30.8795 24.9589 30.8795 29.5331C30.8795 34.1073 27.0651 37.8305 22.3845 37.8305ZM22.3845 22.2995C18.2814 22.2995 14.9534 25.5364 14.9534 29.5331C14.9534 33.5146 18.2814 36.7667 22.3845 36.7667C26.4876 36.7667 29.8157 33.5298 29.8157 29.5331C29.8005 25.5516 26.4724 22.2995 22.3845 22.2995Z" fill="#534741"/>
<path d="M19.3604 30.5361L22.5517 34.8063H24.7704L21.2599 30.4297C22.1717 30.0042 22.8556 29.3811 23.3115 28.5757C23.3419 28.5149 23.3723 28.4389 23.4179 28.3782H25.3934V26.7977H23.8738C23.9194 26.4482 23.9194 26.129 23.9042 25.8555H25.3934V24.2751H19.4515V25.8555H22.3237C22.3541 26.1139 22.3541 26.4482 22.2933 26.7977H19.4667V28.3782H21.4879C21.108 28.7581 20.5609 29.0772 19.8011 29.29L19.3604 30.5361Z" fill="#534741"/>
<path d="M32.8853 13.0751C32.8397 13.0751 32.7941 13.0751 32.7333 13.0599C28.767 12.1785 21.4422 13.0599 21.3662 13.0751C20.9559 13.1207 20.576 12.7864 20.5304 12.3153C20.4848 11.8442 20.7888 11.4187 21.1991 11.3731C21.503 11.3427 28.8278 10.4613 33.0221 11.3883C33.4324 11.4795 33.7059 11.9354 33.6147 12.3913C33.554 12.7864 33.25 13.0751 32.8853 13.0751Z" fill="#FF931E"/>
<path d="M26.3202 10.9932C26.1986 10.9932 26.0618 11.0084 25.9403 11.0084C25.7123 11.3731 25.4084 11.9657 25.2412 12.756C25.3476 12.756 25.454 12.7408 25.5603 12.7408C25.7579 11.8746 26.1074 11.2819 26.3202 10.9932Z" fill="#BF6E17"/>
<path d="M24.1622 11.0995C24.0406 11.1147 23.9038 11.1147 23.7822 11.1299C23.5543 11.5251 23.2808 12.1177 23.1288 12.8928C23.2352 12.8776 23.3415 12.8776 23.4479 12.8624C23.6151 12.0417 23.9342 11.4339 24.1622 11.0995Z" fill="#BF6E17"/>
<path d="M25.2413 11.0388C25.1197 11.0388 24.9829 11.054 24.8613 11.054C24.6334 11.4339 24.3447 12.0265 24.1775 12.8168C24.2839 12.8168 24.3902 12.8016 24.4966 12.8016C24.6942 11.9506 25.0285 11.3427 25.2413 11.0388Z" fill="#BF6E17"/>
<path d="M23.068 11.1755C22.9313 11.1907 22.8097 11.1907 22.6881 11.2059C22.4602 11.6162 22.2018 12.2089 22.0651 12.9839C22.1562 12.9687 22.2626 12.9687 22.3842 12.9535C22.5362 12.1481 22.8401 11.5402 23.068 11.1755Z" fill="#BF6E17"/>
<path d="M21.5788 11.3275C21.3661 11.7378 21.1381 12.3001 21.0165 13.0143C21.1077 13.0599 21.2141 13.0751 21.3205 13.0751C21.4572 12.2849 21.7308 11.677 21.9587 11.2819C21.822 11.2971 21.6852 11.3123 21.5788 11.3275Z" fill="#BF6E17"/>
<path d="M32.3837 11.2515C32.2773 11.2363 32.1709 11.2211 32.0645 11.2059C31.8518 11.5858 31.6086 12.1481 31.4567 12.8471C31.563 12.8623 31.6542 12.8775 31.7606 12.8927C31.9126 12.1633 32.1709 11.6162 32.3837 11.2515Z" fill="#BF6E17"/>
<path d="M33.0371 11.3731H33.0219C32.8091 11.7682 32.5964 12.3153 32.49 12.9991C32.5812 13.0143 32.6723 13.0295 32.7483 13.0599C32.7635 13.0599 32.7787 13.0599 32.7787 13.0599C32.9003 12.4064 33.0979 11.8746 33.2954 11.4947C33.2194 11.4491 33.1282 11.4035 33.0371 11.3731Z" fill="#BF6E17"/>
<path d="M30.4537 11.0388C30.3321 11.0236 30.2257 11.0236 30.1041 11.0236C29.8762 11.3731 29.6026 11.9506 29.4203 12.7104C29.5267 12.7104 29.633 12.7256 29.7242 12.7256C29.9218 11.905 30.2409 11.3427 30.4537 11.0388Z" fill="#BF6E17"/>
<path d="M31.4262 11.1147C31.3198 11.0995 31.1982 11.0844 31.0919 11.0844C30.8791 11.4491 30.6056 12.0113 30.4384 12.7408C30.5448 12.7408 30.6512 12.756 30.7423 12.7712C30.9247 12.0113 31.2134 11.4491 31.4262 11.1147Z" fill="#BF6E17"/>
<path d="M29.4355 10.978C29.314 10.978 29.1924 10.9628 29.0708 10.9628C28.8429 11.3123 28.5541 11.8898 28.3718 12.6648C28.4781 12.6648 28.5845 12.6648 28.6909 12.6648C28.9036 11.8442 29.238 11.2667 29.4355 10.978Z" fill="#BF6E17"/>
<path d="M28.0525 10.9628C27.8246 11.3123 27.5206 11.8898 27.3383 12.68C27.4446 12.68 27.551 12.68 27.6574 12.68C27.8701 11.829 28.2349 11.2363 28.4172 10.9628C28.2956 10.9628 28.1741 10.9628 28.0525 10.9628Z" fill="#BF6E17"/>
<path d="M27.3687 10.9628C27.2471 10.9628 27.1256 10.9628 26.9888 10.9628C26.7608 11.3123 26.4569 11.905 26.2745 12.6952C26.3809 12.6952 26.4873 12.6952 26.5937 12.68C26.8216 11.829 27.1711 11.2363 27.3687 10.9628Z" fill="#BF6E17"/>
<path opacity="0.8" d="M32.8853 12.3457C32.8397 12.3457 32.7941 12.3457 32.7333 12.3305C28.767 11.4491 21.4422 12.3305 21.3662 12.3457C21.0319 12.3913 20.728 12.1785 20.5912 11.8594C20.5304 11.9961 20.5 12.1481 20.5152 12.3153C20.5608 12.7864 20.9407 13.1207 21.351 13.0751C21.427 13.0599 28.7518 12.1937 32.7182 13.0599C32.7637 13.0751 32.8093 13.0751 32.8701 13.0751C33.2196 13.0751 33.5388 12.7864 33.6148 12.3913C33.6451 12.2089 33.6148 12.0265 33.554 11.8594C33.4476 12.1481 33.174 12.3457 32.8853 12.3457Z" fill="#B3B3B3"/>
<path d="M32.8853 14.7923C32.8397 14.7923 32.7941 14.7923 32.7333 14.7771C28.767 13.8957 21.4422 14.7771 21.3662 14.7923C20.9559 14.8379 20.576 14.5036 20.5304 14.0325C20.4848 13.5614 20.7888 13.1359 21.1991 13.0903C21.503 13.0599 28.8278 12.1785 33.0221 13.1055C33.4324 13.1967 33.7059 13.6526 33.6147 14.1085C33.554 14.5036 33.25 14.7923 32.8853 14.7923Z" fill="#FF931E"/>
<path d="M26.3202 12.7104C26.1986 12.7104 26.0618 12.7256 25.9403 12.7256C25.7123 13.0903 25.4084 13.683 25.2412 14.4732C25.3476 14.4732 25.454 14.458 25.5603 14.458C25.7579 13.5918 26.1074 12.9991 26.3202 12.7104Z" fill="#BF6E17"/>
<path d="M24.1622 12.8168C24.0406 12.832 23.9038 12.832 23.7822 12.8472C23.5543 13.2423 23.2808 13.8349 23.1288 14.61C23.2352 14.5948 23.3415 14.5948 23.4479 14.5796C23.6151 13.759 23.9342 13.1511 24.1622 12.8168Z" fill="#BF6E17"/>
<path d="M25.2413 12.756C25.1197 12.756 24.9829 12.7712 24.8613 12.7712C24.6334 13.1511 24.3447 13.7438 24.1775 14.534C24.2839 14.534 24.3902 14.5188 24.4966 14.5188C24.6942 13.6678 25.0285 13.0599 25.2413 12.756Z" fill="#BF6E17"/>
<path d="M23.068 12.9079C22.9313 12.9231 22.8097 12.9231 22.6881 12.9383C22.4602 13.3486 22.2018 13.9413 22.0651 14.7163C22.1562 14.7011 22.2626 14.7011 22.3842 14.6859C22.5362 13.8653 22.8401 13.2726 23.068 12.9079Z" fill="#BF6E17"/>
<path d="M21.5788 13.0447C21.3661 13.455 21.1381 14.0173 21.0165 14.7315C21.1077 14.7771 21.2141 14.7923 21.3205 14.7923C21.4572 14.0021 21.7308 13.3942 21.9587 12.9991C21.822 13.0143 21.6852 13.0295 21.5788 13.0447Z" fill="#BF6E17"/>
<path d="M32.3837 12.9687C32.2773 12.9535 32.1709 12.9383 32.0645 12.9231C31.8518 13.303 31.6086 13.8653 31.4567 14.5644C31.563 14.5796 31.6542 14.5948 31.7606 14.61C31.9126 13.8805 32.1709 13.3334 32.3837 12.9687Z" fill="#BF6E17"/>
<path d="M33.0371 13.0903H33.0219C32.8091 13.4854 32.5964 14.0325 32.49 14.7163C32.5812 14.7315 32.6723 14.7467 32.7483 14.7771C32.7635 14.7771 32.7787 14.7771 32.7787 14.7771C32.9003 14.1237 33.0979 13.5918 33.2954 13.2119C33.2194 13.1663 33.1282 13.1207 33.0371 13.0903Z" fill="#BF6E17"/>
<path d="M30.4537 12.756C30.3321 12.7408 30.2257 12.7408 30.1041 12.7408C29.8762 13.0903 29.6026 13.6678 29.4203 14.4276C29.5267 14.4276 29.633 14.4428 29.7242 14.4428C29.9218 13.6222 30.2409 13.0599 30.4537 12.756Z" fill="#BF6E17"/>
<path d="M31.4262 12.8472C31.3198 12.832 31.1982 12.8168 31.0919 12.8168C30.8791 13.1815 30.6056 13.7438 30.4384 14.4732C30.5448 14.4732 30.6512 14.4884 30.7423 14.5036C30.9247 13.7286 31.2134 13.1663 31.4262 12.8472Z" fill="#BF6E17"/>
<path d="M29.4355 12.6952C29.314 12.6952 29.1924 12.68 29.0708 12.68C28.8429 13.0295 28.5541 13.607 28.3718 14.382C28.4781 14.382 28.5845 14.382 28.6909 14.382C28.9036 13.5614 29.238 12.9839 29.4355 12.6952Z" fill="#BF6E17"/>
<path d="M28.0525 12.68C27.8246 13.0295 27.5206 13.607 27.3383 14.3972C27.4446 14.3972 27.551 14.3972 27.6574 14.3972C27.8701 13.5462 28.2349 12.9535 28.4172 12.68C28.2956 12.68 28.1741 12.68 28.0525 12.68Z" fill="#BF6E17"/>
<path d="M27.3687 12.68C27.2471 12.68 27.1256 12.68 26.9888 12.68C26.7608 13.0295 26.4569 13.6222 26.2745 14.4124C26.3809 14.4124 26.4873 14.4124 26.5937 14.3972C26.8216 13.5462 27.1711 12.9535 27.3687 12.68Z" fill="#BF6E17"/>
<path opacity="0.8" d="M32.8853 14.0629C32.8397 14.0629 32.7941 14.0629 32.7333 14.0477C28.767 13.1663 21.4422 14.0477 21.3662 14.0629C21.0319 14.1085 20.728 13.8957 20.5912 13.5766C20.5304 13.7134 20.5 13.8653 20.5152 14.0325C20.5608 14.5036 20.9407 14.8379 21.351 14.7923C21.427 14.7771 28.7518 13.9109 32.7182 14.7771C32.7637 14.7923 32.8093 14.7923 32.8701 14.7923C33.2196 14.7923 33.5388 14.5036 33.6148 14.1085C33.6451 13.9261 33.6148 13.7438 33.554 13.5766C33.4476 13.8653 33.174 14.0629 32.8853 14.0629Z" fill="#B3B3B3"/>
<defs>
<linearGradient id="paint0_linear_1_142" x1="26.5896" y1="44.4586" x2="26.5896" y2="49.4767" gradientUnits="userSpaceOnUse">
<stop stop-color="white"/>
<stop offset="1" stop-color="#D17918"/>
</linearGradient>
<linearGradient id="paint1_linear_1_142" x1="26.5896" y1="41.9446" x2="26.5896" y2="46.9626" gradientUnits="userSpaceOnUse">
<stop stop-color="white"/>
<stop offset="1" stop-color="#D17918"/>
</linearGradient>
<linearGradient id="paint2_linear_1_142" x1="26.5896" y1="39.4305" x2="26.5896" y2="44.4486" gradientUnits="userSpaceOnUse">
<stop stop-color="white"/>
<stop offset="1" stop-color="#D17918"/>
</linearGradient>
<linearGradient id="paint3_linear_1_142" x1="42.685" y1="39.631" x2="42.685" y2="44.6491" gradientUnits="userSpaceOnUse">
<stop stop-color="white"/>
<stop offset="1" stop-color="#D17918"/>
</linearGradient>
<linearGradient id="paint4_linear_1_142" x1="42.6848" y1="37.117" x2="42.6848" y2="42.135" gradientUnits="userSpaceOnUse">
<stop stop-color="white"/>
<stop offset="1" stop-color="#D17918"/>
</linearGradient>
<linearGradient id="paint5_linear_1_142" x1="42.685" y1="34.6029" x2="42.685" y2="39.621" gradientUnits="userSpaceOnUse">
<stop stop-color="white"/>
<stop offset="1" stop-color="#D17918"/>
</linearGradient>
<linearGradient id="paint6_linear_1_142" x1="42.685" y1="32.0889" x2="42.685" y2="37.107" gradientUnits="userSpaceOnUse">
<stop stop-color="white"/>
<stop offset="1" stop-color="#D17918"/>
</linearGradient>
<linearGradient id="paint7_linear_1_142" x1="42.6848" y1="29.5749" x2="42.6848" y2="34.5931" gradientUnits="userSpaceOnUse">
<stop stop-color="white"/>
<stop offset="1" stop-color="#D17918"/>
</linearGradient>
<linearGradient id="paint8_linear_1_142" x1="36.7763" y1="47.2284" x2="36.7763" y2="52.2466" gradientUnits="userSpaceOnUse">
<stop stop-color="white"/>
<stop offset="1" stop-color="#D17918"/>
</linearGradient>
<linearGradient id="paint9_linear_1_142" x1="36.7764" y1="44.7144" x2="36.7764" y2="49.7324" gradientUnits="userSpaceOnUse">
<stop stop-color="white"/>
<stop offset="1" stop-color="#D17918"/>
</linearGradient>
<linearGradient id="paint10_linear_1_142" x1="36.7763" y1="42.2003" x2="36.7763" y2="47.2185" gradientUnits="userSpaceOnUse">
<stop stop-color="white"/>
<stop offset="1" stop-color="#D17918"/>
</linearGradient>
<linearGradient id="paint11_linear_1_142" x1="36.7763" y1="39.6863" x2="36.7763" y2="44.7045" gradientUnits="userSpaceOnUse">
<stop stop-color="white"/>
<stop offset="1" stop-color="#D17918"/>
</linearGradient>
<linearGradient id="paint12_linear_1_142" x1="36.7763" y1="37.1723" x2="36.7763" y2="42.1905" gradientUnits="userSpaceOnUse">
<stop stop-color="white"/>
<stop offset="1" stop-color="#D17918"/>
</linearGradient>
<linearGradient id="paint13_linear_1_142" x1="17.8485" y1="45.5768" x2="22.5138" y2="47.4255" gradientUnits="userSpaceOnUse">
<stop stop-color="white"/>
<stop offset="1" stop-color="#D17918"/>
</linearGradient>
<linearGradient id="paint14_linear_1_142" x1="49.846" y1="49.4799" x2="45.1807" y2="51.3285" gradientUnits="userSpaceOnUse">
<stop stop-color="white"/>
<stop offset="1" stop-color="#D17918"/>
</linearGradient>
</defs>
</svg>
