<svg width="63" height="63" viewBox="0 0 63 63" fill="none" xmlns="http://www.w3.org/2000/svg">
<ellipse cx="31.1665" cy="31.165" rx="31.1665" ry="31.165" fill="white"/>
<path d="M35.2889 7.0018C36.0626 7.25618 36.6007 7.78476 37.0138 8.46309C37.9306 9.96406 39.2949 10.6532 41.0379 10.7091C42.6939 10.7632 43.5147 11.5733 43.5636 13.2204C43.6143 14.9793 44.3282 16.3378 45.852 17.256C45.9715 17.3282 46.0857 17.4094 46.198 17.4888C47.258 18.2374 47.5424 19.273 47.0079 20.451C46.8811 20.7324 46.738 21.0048 46.6075 21.2863C46.0422 22.5094 46.0476 23.7326 46.6148 24.9539C46.738 25.2191 46.8738 25.4807 46.9952 25.7459C47.5497 26.9492 47.2706 27.9793 46.1835 28.7424C45.8791 28.9553 45.5621 29.1501 45.2686 29.3774C44.1851 30.2181 43.6669 31.3475 43.5817 32.6951C43.56 33.0325 43.5382 33.3734 43.4712 33.7054C43.2701 34.6904 42.6541 35.2767 41.663 35.4445C41.1448 35.5329 40.6158 35.5455 40.0958 35.6195C38.8945 35.7945 37.9705 36.4241 37.2639 37.3892C37.0809 37.6382 36.9178 37.9016 36.7384 38.1524C35.9829 39.2059 34.9519 39.4783 33.7616 38.9407C33.3539 38.7567 32.9517 38.5529 32.5331 38.3959C31.3971 37.9683 30.2828 38.0748 29.1957 38.5817C28.9439 38.699 28.6957 38.8271 28.442 38.9425C27.2571 39.4819 26.2207 39.2041 25.4633 38.1524C25.1934 37.7771 24.9415 37.3856 24.6444 37.0302C23.8671 36.1029 22.8416 35.6537 21.6476 35.5491C21.6005 35.5455 21.5552 35.5437 21.5081 35.5419C19.3991 35.4409 18.7432 34.795 18.6218 32.6915C18.5349 31.1725 17.8772 29.9782 16.5944 29.1339C16.3878 28.9986 16.1813 28.8597 15.9802 28.7154C14.9565 27.9865 14.5851 26.9312 15.192 25.8415C16.2175 23.9978 16.2338 22.2478 15.1993 20.4005C14.5887 19.309 14.9474 18.2591 15.9657 17.5194C16.1777 17.3643 16.3987 17.2218 16.618 17.0756C17.8627 16.244 18.5113 15.0731 18.6164 13.5938C18.6363 13.316 18.6363 13.0364 18.6798 12.7639C18.8846 11.4777 19.6637 10.7741 20.9772 10.7145C22.0136 10.6676 23.0409 10.554 23.8689 9.87746C24.3527 9.48237 24.7857 9.0025 25.1463 8.49195C25.6137 7.83347 26.121 7.2652 26.9092 7C27.1882 7 27.4672 7 27.7463 7C28.3061 7.24896 28.8624 7.50874 29.4295 7.74327C30.3263 8.1149 31.263 8.23758 32.1925 7.92548C32.9607 7.6675 33.6963 7.3121 34.4464 7C34.7309 7.0018 35.0099 7.0018 35.2889 7.0018ZM40.6176 23.1174C40.6266 17.8838 36.3579 13.6317 31.1018 13.6425C25.8456 13.6515 21.6241 17.846 21.5969 23.0813C21.5697 28.3113 25.8203 32.5652 31.0891 32.5814C36.3452 32.5959 40.6067 28.3636 40.6176 23.1174Z" fill="#52AFFF"/>
<path d="M20.8765 54.1896C20.2021 53.1796 19.571 52.2326 18.9399 51.2857C18.6235 50.8114 18.2836 50.3496 17.9979 49.8554C17.8062 49.5218 17.5802 49.4496 17.2113 49.4947C15.5116 49.7057 13.8064 49.8879 12 50.0935C14.3905 45.4095 16.743 40.7976 19.1135 36.1514C19.6072 36.7935 20.2853 36.8963 20.9905 36.9612C21.5582 37.0135 22.1315 37.0676 22.6812 37.2011C23.3466 37.3616 23.871 37.7746 24.285 38.3193C24.4622 38.552 24.6521 38.7793 24.8076 39.0264C25.4061 39.9787 26.2289 40.5559 27.4621 40.5739C25.2651 45.1173 23.0898 49.6138 20.8765 54.1896Z" fill="#52AFFF"/>
<path d="M34.7099 40.7613C36.5139 40.7937 37.7196 39.996 38.5294 38.5411C38.9072 37.8623 39.5326 37.4859 40.2466 37.3023C41.1106 37.079 41.9946 36.9313 42.8785 36.7963C43.0104 36.7765 43.24 36.9781 43.3231 37.1312C45.4127 40.9882 47.4897 44.8524 49.5684 48.7148C49.8088 49.1595 50.0474 49.6061 50.333 50.1391C49.5504 50.0436 48.8418 49.9608 48.1332 49.869C47.1065 49.7357 46.0797 49.6079 45.0566 49.4512C44.7403 49.4026 44.659 49.5575 44.5686 49.7933C44.0426 51.1726 43.5057 52.5483 42.9725 53.924C42.9074 54.0933 42.8351 54.2608 42.7339 54.511C40.0478 49.9068 37.3978 45.3674 34.7099 40.7613Z" fill="#52AFFF"/>
<path d="M37.448 21.6164C36.5625 22.5578 35.6679 23.5264 34.7459 24.4714C34.5158 24.7068 34.4355 24.9077 34.4994 25.2409C34.7459 26.5281 34.9503 27.8243 35.1822 29.1803C35.0252 29.1188 34.9138 29.0862 34.8116 29.0337C33.7198 28.467 32.628 27.904 31.5435 27.321C31.2824 27.1798 31.0743 27.1762 30.8077 27.3174C29.6301 27.9474 28.4416 28.5575 27.1617 29.2256C27.2968 28.4036 27.4173 27.6686 27.5396 26.9354C27.6273 26.4176 27.6747 25.8872 27.819 25.3839C27.9504 24.9222 27.7843 24.6543 27.4684 24.3411C26.5793 23.4522 25.7322 22.5216 24.885 21.6218C25.6244 21.5114 26.4898 21.381 27.3571 21.2543C27.85 21.1819 28.3521 21.1421 28.8377 21.0353C29.0148 20.9954 29.223 20.8379 29.307 20.6768C29.9277 19.4837 30.5211 18.278 31.1674 16.9854C31.2861 17.2098 31.3719 17.3637 31.4504 17.5212C31.9689 18.5604 32.4965 19.596 32.9968 20.6442C33.1282 20.9194 33.3017 21.0262 33.5938 21.0642C34.9211 21.2453 36.2466 21.4444 37.448 21.6164Z" fill="#52AFFF"/>
</svg>
