<svg width="212" height="209" viewBox="0 0 212 209" fill="none" xmlns="http://www.w3.org/2000/svg">
<path d="M36.8764 97.7861C33.0832 82.962 33.7479 68.4499 38.9907 54.1135C39.1671 54.1512 39.3219 54.2557 39.4226 54.405C39.5234 54.5543 39.5622 54.7368 39.5309 54.914C39.2994 60.0121 39.5792 65.1206 40.3664 70.1631C41.6227 79.0783 44.1974 87.7582 48.0063 95.9189C52.314 105.151 58.252 113.533 65.536 120.664C74.4524 129.434 83.3509 138.22 92.2317 147.023C94.0445 148.902 96.2824 150.32 98.7577 151.158C108.219 154.194 117.588 148.23 119.037 139.301C119.83 134.406 118.554 130.064 115.081 126.436C112.771 124.026 110.348 121.723 107.971 119.378C101.102 112.606 94.2055 105.863 87.3679 99.0577C83.0618 94.8378 80.2734 89.3157 79.4363 83.3503C77.1722 68.1172 87.2112 54.9104 101.003 51.5668C111.161 49.1051 120.28 51.4028 128.049 58.3111C130.944 60.8876 133.612 63.705 136.375 66.4203C139.252 69.25 142.123 72.0845 144.99 74.9238C153.533 83.3462 162.079 91.7674 170.627 100.188C171.216 100.769 171.78 101.382 172.412 101.916C176.892 105.704 182.016 106.891 187.654 105.106C193.261 103.331 196.798 99.4673 198.028 93.8378C199.173 88.5966 197.752 83.9199 193.905 80.0669C188.77 74.9246 183.566 69.8512 178.389 64.7474C169.329 55.82 160.269 46.8925 151.209 37.9651C140.209 27.0149 125.411 20.7087 109.88 20.3533C96.8519 19.9583 84.042 23.7563 73.3422 31.1865C73.1259 31.2949 72.9521 31.4723 72.8482 31.6905C72.7444 31.9087 72.7165 32.1553 72.769 32.3912C73.5967 39.167 68.6936 45.4062 61.8256 46.3804C54.6778 47.3933 48.1445 42.6547 47.0736 35.6796C45.9954 28.6565 51.0647 22.0886 58.2582 21.2257C59.8427 21.0133 61.4536 21.1146 62.9988 21.5236C63.1975 21.5893 63.4099 21.6024 63.6151 21.5614C63.8203 21.5204 64.0114 21.4268 64.1694 21.2899C69.5835 17.3089 75.5258 14.099 81.8258 11.7523C87.1032 9.78069 92.587 8.41138 98.1727 7.67051C102.832 7.03657 107.542 6.85152 112.236 7.11806C130.53 8.18529 146.367 14.8567 159.55 27.3348C165.607 33.0669 171.455 39.0096 177.397 44.8579C180.787 48.1947 184.177 51.5315 187.566 54.8684C192.936 60.157 198.33 65.4187 203.667 70.7367C208.166 75.1443 211.025 80.9517 211.772 87.2002C213.46 100.29 205.625 112.931 192.987 117.434C187.494 119.417 181.537 119.739 175.862 118.359C175.632 118.266 175.38 118.245 175.137 118.296C177.026 125.386 177.808 132.726 177.455 140.054C177.158 147.365 175.659 154.577 173.017 161.402C173.017 159.775 173.056 158.144 173.01 156.517C172.796 149.723 171.817 142.976 170.091 136.402C166.162 120.667 157.895 106.346 146.227 95.0627C139.233 88.1875 132.246 81.306 125.266 74.4183C123.153 72.3368 121.074 70.2214 118.93 68.171C117.461 66.7391 115.71 65.627 113.788 64.9052C111.866 64.1834 109.816 63.8675 107.765 63.9776C100.391 64.2235 94.2259 69.4236 92.9829 76.5574C92.5208 78.8722 92.636 81.2649 93.3183 83.5248C94.0006 85.7847 95.2292 87.8425 96.8958 89.5168C98.9013 91.6237 101.026 93.6226 103.099 95.6644C110.275 102.735 117.45 109.807 124.623 116.881C128.839 120.964 131.601 126.312 132.487 132.108C133.914 141.292 131.469 149.395 125.031 156.246C120.643 160.984 114.733 164.04 108.325 164.885C98.5336 166.27 90.0002 163.596 82.967 156.769C74.856 148.895 66.8596 140.907 58.8139 132.969C54.6672 128.878 50.5207 124.787 46.3744 120.696C44.3014 118.651 42.2474 116.585 40.1522 114.562C38.6386 113.061 36.8291 111.892 34.8386 111.127C32.8481 110.362 30.72 110.018 28.5893 110.117C21.3016 110.32 15.2311 115.567 13.9392 122.255C12.9801 127.222 14.1905 131.635 17.6302 135.419C18.6875 136.583 19.849 137.655 20.9729 138.764C28.6425 146.323 36.3127 153.882 43.9835 161.44C49.7303 167.105 55.4548 172.793 61.2229 178.436C69.3531 186.468 79.6343 191.986 90.8307 194.326C99.0506 196.07 107.541 196.117 115.78 194.465C124.019 192.812 131.832 189.495 138.739 184.717C138.962 184.596 139.14 184.405 139.244 184.173C139.349 183.942 139.374 183.682 139.317 183.435C138.581 176.641 143.176 170.656 150.076 169.545C156.868 168.452 163.357 172.574 164.854 179.399C166.371 186.309 162.009 192.908 154.974 194.452C153.015 194.883 150.981 194.847 149.038 194.346C148.863 194.291 148.678 194.282 148.499 194.319C148.32 194.356 148.154 194.438 148.015 194.557C140.204 200.353 131.306 204.523 121.848 206.818C118.101 207.731 114.289 208.358 110.446 208.693C106.275 209.072 102.079 209.1 97.9033 208.776C85.8995 207.896 74.2932 204.1 64.0956 197.718C59.6324 194.944 55.4899 191.687 51.7435 188.005C42.9889 179.377 34.2334 170.75 25.4767 162.123C19.7868 156.515 14.1001 150.903 8.41658 145.287C3.90367 140.929 1.01868 135.161 0.23997 128.941C-1.58988 114.883 7.20752 101.794 21.0847 97.8825C26.245 96.4391 31.6989 96.4058 36.8764 97.7861Z" fill="url(#paint0_linear_40_6)"/>
<path d="M36.8764 90.7861C33.0832 75.962 33.7479 61.4499 38.9907 47.1135C39.1671 47.1512 39.3219 47.2557 39.4226 47.405C39.5234 47.5543 39.5622 47.7368 39.5309 47.914C39.2994 53.0121 39.5792 58.1206 40.3664 63.1631C41.6227 72.0783 44.1974 80.7582 48.0063 88.9189C52.314 98.151 58.252 106.533 65.536 113.664C74.4524 122.434 83.3509 131.22 92.2317 140.023C94.0445 141.902 96.2824 143.32 98.7577 144.158C108.219 147.194 117.588 141.23 119.037 132.301C119.83 127.406 118.554 123.064 115.081 119.436C112.771 117.026 110.348 114.723 107.971 112.378C101.102 105.606 94.2055 98.8629 87.3679 92.0577C83.0618 87.8378 80.2734 82.3157 79.4363 76.3503C77.1722 61.1172 87.2112 47.9104 101.003 44.5668C111.161 42.1051 120.28 44.4028 128.049 51.3111C130.944 53.8876 133.612 56.705 136.375 59.4203C139.252 62.25 142.123 65.0845 144.99 67.9238C153.533 76.3462 162.079 84.7674 170.627 93.1877C171.216 93.7686 171.78 94.3815 172.412 94.9158C176.892 98.7042 182.016 99.8913 187.654 98.1058C193.261 96.3307 196.798 92.4673 198.028 86.8378C199.173 81.5966 197.752 76.9199 193.905 73.0669C188.77 67.9246 183.566 62.8512 178.389 57.7474C169.329 48.82 160.269 39.8925 151.209 30.9651C140.209 20.0149 125.411 13.7087 109.88 13.3533C96.8519 12.9583 84.042 16.7563 73.3422 24.1865C73.1259 24.2949 72.9521 24.4723 72.8482 24.6905C72.7444 24.9087 72.7165 25.1553 72.769 25.3912C73.5967 32.167 68.6936 38.4062 61.8256 39.3804C54.6778 40.3933 48.1445 35.6547 47.0736 28.6796C45.9954 21.6565 51.0647 15.0886 58.2582 14.2257C59.8427 14.0133 61.4536 14.1146 62.9988 14.5236C63.1975 14.5893 63.4099 14.6024 63.6151 14.5614C63.8203 14.5204 64.0114 14.4268 64.1694 14.2899C69.5835 10.3089 75.5258 7.09899 81.8258 4.75229C87.1032 2.78069 92.587 1.41138 98.1727 0.67051C102.832 0.0365676 107.542 -0.148484 112.236 0.118063C130.53 1.18529 146.367 7.85674 159.55 20.3348C165.607 26.0669 171.455 32.0096 177.397 37.8579C180.787 41.1947 184.177 44.5315 187.566 47.8684C192.936 53.157 198.33 58.4187 203.667 63.7367C208.166 68.1443 211.025 73.9517 211.772 80.2002C213.46 93.2904 205.625 105.931 192.987 110.434C187.494 112.417 181.537 112.739 175.862 111.359C175.632 111.266 175.38 111.245 175.137 111.296C177.026 118.386 177.808 125.726 177.455 133.054C177.158 140.365 175.659 147.577 173.017 154.402C173.017 152.775 173.056 151.144 173.01 149.517C172.796 142.723 171.817 135.976 170.091 129.402C166.162 113.667 157.895 99.346 146.227 88.0627C139.233 81.1875 132.246 74.306 125.266 67.4183C123.153 65.3368 121.074 63.2214 118.93 61.171C117.461 59.7391 115.71 58.627 113.788 57.9052C111.866 57.1834 109.816 56.8675 107.765 56.9776C100.391 57.2235 94.2259 62.4236 92.9829 69.5574C92.5208 71.8722 92.636 74.2649 93.3183 76.5248C94.0006 78.7847 95.2292 80.8425 96.8958 82.5168C98.9013 84.6237 101.026 86.6226 103.099 88.6644C110.275 95.7352 117.45 102.807 124.623 109.881C128.839 113.964 131.601 119.312 132.487 125.108C133.914 134.292 131.469 142.395 125.031 149.246C120.643 153.984 114.733 157.04 108.325 157.885C98.5336 159.27 90.0002 156.596 82.967 149.769C74.856 141.895 66.8596 133.907 58.8139 125.969C54.6672 121.878 50.5207 117.787 46.3744 113.696C44.3014 111.651 42.2474 109.585 40.1522 107.562C38.6386 106.061 36.8291 104.892 34.8386 104.127C32.8481 103.362 30.72 103.018 28.5893 103.117C21.3016 103.32 15.2311 108.567 13.9392 115.255C12.9801 120.222 14.1905 124.635 17.6302 128.419C18.6875 129.583 19.849 130.655 20.9729 131.764C28.6425 139.323 36.3127 146.882 43.9835 154.44C49.7303 160.105 55.4548 165.793 61.2229 171.436C69.3531 179.468 79.6343 184.986 90.8307 187.326C99.0506 189.07 107.541 189.117 115.78 187.465C124.019 185.812 131.832 182.495 138.739 177.717C138.962 177.596 139.14 177.405 139.244 177.173C139.349 176.942 139.374 176.682 139.317 176.435C138.581 169.641 143.176 163.656 150.076 162.545C156.868 161.452 163.357 165.574 164.854 172.399C166.371 179.309 162.009 185.908 154.974 187.452C153.015 187.883 150.981 187.847 149.038 187.346C148.863 187.291 148.678 187.282 148.499 187.319C148.32 187.356 148.154 187.438 148.015 187.557C140.204 193.353 131.306 197.523 121.848 199.818C118.101 200.731 114.289 201.358 110.446 201.693C106.275 202.072 102.079 202.1 97.9033 201.776C85.8995 200.896 74.2932 197.1 64.0956 190.718C59.6324 187.944 55.4899 184.687 51.7435 181.005C42.9889 172.377 34.2334 163.75 25.4767 155.123C19.7868 149.515 14.1001 143.903 8.41658 138.287C3.90367 133.929 1.01868 128.161 0.23997 121.941C-1.58988 107.883 7.20752 94.7938 21.0847 90.8825C26.245 89.4391 31.6989 89.4058 36.8764 90.7861Z" fill="white"/>
<defs>
<linearGradient id="paint0_linear_40_6" x1="106" y1="7" x2="106" y2="209" gradientUnits="userSpaceOnUse">
<stop stop-opacity="0.25"/>
<stop offset="1" stop-color="#BE6EFF"/>
</linearGradient>
</defs>
</svg>
